<svg width="44" height="44" viewBox="0 0 44 44" fill="none" xmlns="http://www.w3.org/2000/svg">
<rect width="44" height="44" rx="11" fill="url(#paint0_linear_284_2767)"/>
<path d="M22 12.5C27.2339 12.5 31.5 16.7661 31.5 22C31.5 27.2339 27.2339 31.5 22 31.5C16.7661 31.5 12.5 27.2339 12.5 22C12.5 16.7661 16.7661 12.5 22 12.5ZM22.5723 24.6182C22.2093 24.467 21.7907 24.467 21.4277 24.6182C21.2538 24.6906 21.0956 24.7915 20.9551 24.918L20.9355 24.9355L20.918 24.9551C20.7915 25.0956 20.6906 25.2538 20.6182 25.4277C20.5469 25.5988 20.5 25.7942 20.5 26C20.5 26.2058 20.5469 26.4012 20.6182 26.5723V26.5713C20.6959 26.7683 20.8026 26.9168 20.918 27.0449L20.9355 27.0645L20.9551 27.082C21.0956 27.2085 21.2538 27.3094 21.4277 27.3818C21.5988 27.4531 21.7942 27.5 22 27.5C22.2058 27.5 22.4012 27.4531 22.5723 27.3818C22.7462 27.3094 22.9044 27.2085 23.0449 27.082L23.0645 27.0645L23.082 27.0449C23.1973 26.9168 23.3031 26.7681 23.3809 26.5713L23.3818 26.5723C23.4531 26.4012 23.5 26.2058 23.5 26C23.5 25.7942 23.4531 25.5988 23.3818 25.4277C23.3094 25.2538 23.2085 25.0956 23.082 24.9551L23.0645 24.9355L23.0449 24.918L22.9355 24.8281C22.8238 24.7431 22.7026 24.6725 22.5723 24.6182ZM22 16.75C21.3139 16.75 20.75 17.3139 20.75 18V23C20.75 23.6861 21.3139 24.25 22 24.25C22.6861 24.25 23.25 23.6861 23.25 23V18C23.25 17.3139 22.6861 16.75 22 16.75Z" fill="white" stroke="white"/>
<defs>
<linearGradient id="paint0_linear_284_2767" x1="-0.40367" y1="16.6222" x2="37.3" y2="20.6676" gradientUnits="userSpaceOnUse">
<stop stop-color="#D9303C"/>
<stop offset="0.987116" stop-color="#DE6C75"/>
</linearGradient>
</defs>
</svg>
