<svg width="90" height="85" viewBox="0 0 90 85" fill="none" xmlns="http://www.w3.org/2000/svg">
<path d="M48.0224 45.2485C58.8904 44.8647 67.7188 54.2977 67.5783 64.97C67.4403 75.5345 58.9883 84.3679 48.5543 84.4331C38.5593 84.4984 28.775 76.2871 28.5819 65.0202C28.4037 54.5887 36.8383 44.7242 48.0224 45.2485ZM49.8112 48.091C44.3797 48.0308 42.4429 50.0152 42.2898 55.3288C42.2497 56.681 41.4895 58.0935 40.7996 59.3328C37.7364 64.8396 38.9155 70.6098 44.1288 75.103C48.5969 78.954 55.1122 79.0292 59.6857 75.2836C64.4097 71.4151 66.3164 64.6138 64.2868 58.8812C62.0063 52.4537 56.2537 48.1637 49.8112 48.091Z" fill="#E02A3D"/>
<path d="M23.0574 0.0126883C34.5376 -0.253242 44.9741 10.0553 45.1021 21.9319C45.2376 34.3353 34.9365 44.8998 22.636 44.9374C10.7494 44.975 0.731809 34.9123 0.558703 22.8601C0.390615 11.109 10.5186 -0.436383 23.0574 0.0126883ZM5.82464 32.2154C6.02032 32.1501 6.216 32.0849 6.41169 32.0222C6.34646 31.257 6.22353 30.4893 6.22854 29.7242C6.24861 25.0327 7.36753 20.7653 11.4869 17.958C14.9591 15.5922 18.6947 15.379 22.4403 17.3408C23.0022 17.6343 23.2882 18.4572 23.6997 19.0368C23.1277 19.3077 22.5783 19.6865 21.9736 19.8245C21.073 20.0302 20.1297 20.0428 19.2115 20.1732C12.5758 21.119 9.29427 28.3217 12.9546 33.8963C18.1528 41.8115 32.1016 42.1025 38.376 34.674C46.936 24.541 43.0424 7.91785 29.367 3.0433C17.0263 -1.35459 0.922475 8.55257 2.90943 24.9449C3.22804 27.5641 4.02333 30.1582 5.82464 32.2154Z" fill="#E02A3D"/>
<path d="M69.3644 46.2899C58.7749 46.2723 49.8236 37.3586 50.0142 26.6863C50.2325 14.471 59.254 6.13183 70.4056 6.44041C81.0528 6.73645 89.4346 13.6782 89.6228 27.2708C89.7758 38.0636 80.7593 46.3099 69.3644 46.2899ZM86.7478 24.3456C84.249 29.0395 82.9846 30.4143 79.9741 31.8092C76.2987 33.5127 70.7443 32.2909 68.6419 29.1373C68.1151 28.3471 68.2179 27.1353 68.0298 26.1193C68.8752 25.9763 69.7282 25.6878 70.5636 25.7329C71.3865 25.7781 72.1818 26.192 73.0021 26.4003C76.4843 27.2783 79.7708 25.2864 80.4256 21.9121C81.2636 17.597 78.8075 12.454 74.7483 10.7104C69.3368 8.38723 64.0308 8.6933 59.1487 12.2282C53.8351 16.0791 51.3514 21.4931 51.8582 27.8829C52.4352 35.1534 56.3062 40.5046 63.2455 43.1087C69.9866 45.6401 76.2987 44.5638 81.9083 39.9201C86.7302 35.9311 88.6921 28.8463 86.7478 24.3456Z" fill="#E02A3D"/>
<path d="M53.2909 73.3113C48.592 73.3489 46.0957 71.525 45.9803 68.7227C45.8925 66.5802 47.0265 65.4262 48.9382 64.8692C49.6758 64.6535 50.471 64.6234 51.1961 64.38C55.6818 62.8748 56.9864 59.2571 54.4976 55.2481C54.0109 54.4628 53.3286 53.7829 52.9447 52.9576C52.6888 52.4081 52.8017 51.6881 52.749 51.0434C53.4113 51.0133 54.2568 50.7022 54.7109 50.9957C61.181 55.1879 65.5664 63.5822 59.0285 70.5416C57.2372 72.4457 54.9492 73.2586 53.2909 73.3113Z" fill="#E02A3D"/>
<path d="M28.406 29.9096C28.4085 33.1685 25.8997 35.7074 22.7437 35.6372C19.9414 35.5744 17.5455 33.0857 17.5078 30.1931C17.4677 26.9969 19.8209 24.5283 22.9218 24.5132C25.9248 24.5007 28.4035 26.9417 28.406 29.9096Z" fill="#E02A3D"/>
</svg>
