<svg width="44" height="45" viewBox="0 0 44 45" fill="none" xmlns="http://www.w3.org/2000/svg">
<rect x="0.5" y="1.46875" width="42.9844" height="42.9844" rx="6.5" fill="white"/>
<rect x="0.5" y="1.46875" width="42.9844" height="42.9844" rx="6.5" stroke="#CCCCCC"/>
<path d="M31.9922 29.9609V32.9609H11.9922V29.9609C11.9922 29.4109 12.4422 28.9609 12.9922 28.9609H30.9922C31.5422 28.9609 31.9922 29.4109 31.9922 29.9609Z" fill="#EFB065" stroke="#EFB065" stroke-width="1.5" stroke-miterlimit="10" stroke-linecap="round" stroke-linejoin="round"/>
<path d="M16.9922 21.9609H14.9922V28.9609H16.9922V21.9609Z" fill="#EFB065"/>
<path d="M20.9922 21.9609H18.9922V28.9609H20.9922V21.9609Z" fill="#EFB065"/>
<path d="M24.9922 21.9609H22.9922V28.9609H24.9922V21.9609Z" fill="#EFB065"/>
<path d="M28.9922 21.9609H26.9922V28.9609H28.9922V21.9609Z" fill="#EFB065"/>
<path d="M32.9922 33.7109H10.9922C10.5822 33.7109 10.2422 33.3709 10.2422 32.9609C10.2422 32.5509 10.5822 32.2109 10.9922 32.2109H32.9922C33.4022 32.2109 33.7422 32.5509 33.7422 32.9609C33.7422 33.3709 33.4022 33.7109 32.9922 33.7109Z" fill="#EFB065"/>
<path d="M31.3622 16.7108L22.3622 13.1108C22.1622 13.0308 21.8222 13.0308 21.6222 13.1108L12.6222 16.7108C12.2722 16.8508 11.9922 17.2608 11.9922 17.6408V20.9608C11.9922 21.5108 12.4422 21.9608 12.9922 21.9608H30.9922C31.5422 21.9608 31.9922 21.5108 31.9922 20.9608V17.6408C31.9922 17.2608 31.7122 16.8508 31.3622 16.7108ZM21.9922 19.4608C21.1622 19.4608 20.4922 18.7908 20.4922 17.9608C20.4922 17.1308 21.1622 16.4608 21.9922 16.4608C22.8222 16.4608 23.4922 17.1308 23.4922 17.9608C23.4922 18.7908 22.8222 19.4608 21.9922 19.4608Z" fill="#EFB065"/>
</svg>
