<svg width="44" height="45" viewBox="0 0 44 45" fill="none" xmlns="http://www.w3.org/2000/svg">
<rect x="0.5" y="1.48438" width="42.9844" height="42.9844" rx="6.5" fill="white"/>
<rect x="0.5" y="1.48438" width="42.9844" height="42.9844" rx="6.5" stroke="#CCCCCC"/>
<path d="M31.9922 21.9468V24.0068C31.9922 24.5568 31.5522 25.0068 30.9922 25.0268H29.0322C27.9522 25.0268 26.9622 24.2368 26.8722 23.1568C26.8122 22.5268 27.0522 21.9368 27.4722 21.5268C27.8422 21.1468 28.3522 20.9268 28.9122 20.9268H30.9922C31.5522 20.9468 31.9922 21.3968 31.9922 21.9468Z" fill="#007AFF"/>
<path d="M30.4622 26.5266H29.0322C27.1322 26.5266 25.5322 25.0966 25.3722 23.2766C25.2822 22.2366 25.6622 21.1966 26.4222 20.4566C27.0622 19.7966 27.9522 19.4266 28.9122 19.4266H30.4622C30.7522 19.4266 30.9922 19.1866 30.9622 18.8966C30.7422 16.4666 29.1322 14.8066 26.7422 14.5266C26.5022 14.4866 26.2522 14.4766 25.9922 14.4766H16.9922C16.7122 14.4766 16.4422 14.4966 16.1822 14.5366C13.6322 14.8566 11.9922 16.7566 11.9922 19.4766V26.4766C11.9922 29.2366 14.2322 31.4766 16.9922 31.4766H25.9922C28.7922 31.4766 30.7222 29.7266 30.9622 27.0566C30.9922 26.7666 30.7522 26.5266 30.4622 26.5266ZM22.9922 20.7266H16.9922C16.5822 20.7266 16.2422 20.3866 16.2422 19.9766C16.2422 19.5666 16.5822 19.2266 16.9922 19.2266H22.9922C23.4022 19.2266 23.7422 19.5666 23.7422 19.9766C23.7422 20.3866 23.4022 20.7266 22.9922 20.7266Z" fill="#007AFF"/>
</svg>
