<svg width="24" height="24" viewBox="0 0 24 24" fill="none" xmlns="http://www.w3.org/2000/svg">
<path d="M7.5 10.125C7.5 9.9025 7.56598 9.68499 7.6896 9.49998C7.81322 9.31498 7.98892 9.17078 8.19449 9.08564C8.40005 9.00049 8.62625 8.97821 8.84448 9.02162C9.06271 9.06502 9.26317 9.17217 9.4205 9.3295C9.57783 9.48684 9.68498 9.68729 9.72839 9.90552C9.7718 10.1238 9.74952 10.35 9.66437 10.5555C9.57922 10.7611 9.43503 10.9368 9.25002 11.0604C9.06502 11.184 8.84751 11.25 8.625 11.25C8.32664 11.25 8.04049 11.1315 7.82951 10.9205C7.61853 10.7095 7.5 10.4234 7.5 10.125ZM15.375 11.25C15.5975 11.25 15.815 11.184 16 11.0604C16.185 10.9368 16.3292 10.7611 16.4144 10.5555C16.4995 10.35 16.5218 10.1238 16.4784 9.90552C16.435 9.68729 16.3278 9.48684 16.1705 9.3295C16.0132 9.17217 15.8127 9.06502 15.5945 9.02162C15.3763 8.97821 15.1501 9.00049 14.9445 9.08564C14.7389 9.17078 14.5632 9.31498 14.4396 9.49998C14.316 9.68499 14.25 9.9025 14.25 10.125C14.25 10.4234 14.3685 10.7095 14.5795 10.9205C14.7905 11.1315 15.0766 11.25 15.375 11.25ZM21.75 12C21.75 13.9284 21.1782 15.8134 20.1068 17.4168C19.0355 19.0202 17.5127 20.2699 15.7312 21.0078C13.9496 21.7458 11.9892 21.9389 10.0979 21.5627C8.20656 21.1865 6.46928 20.2579 5.10571 18.8943C3.74215 17.5307 2.81355 15.7934 2.43735 13.9021C2.06114 12.0108 2.25422 10.0504 2.99218 8.26884C3.73013 6.48726 4.97982 4.96451 6.58319 3.89317C8.18657 2.82183 10.0716 2.25 12 2.25C14.585 2.25293 17.0632 3.2811 18.8911 5.10894C20.7189 6.93679 21.7471 9.41504 21.75 12ZM20.25 12C20.25 10.3683 19.7661 8.77325 18.8596 7.41655C17.9531 6.05984 16.6646 5.00242 15.1571 4.37799C13.6497 3.75357 11.9909 3.59019 10.3905 3.90852C8.79017 4.22685 7.32016 5.01259 6.16637 6.16637C5.01259 7.32015 4.22685 8.79016 3.90853 10.3905C3.5902 11.9908 3.75358 13.6496 4.378 15.1571C5.00242 16.6646 6.05984 17.9531 7.41655 18.8596C8.77326 19.7661 10.3683 20.25 12 20.25C14.1873 20.2475 16.2843 19.3775 17.8309 17.8309C19.3775 16.2843 20.2475 14.1873 20.25 12ZM16.2735 13.6004C16.1013 13.5008 15.8966 13.4737 15.7045 13.5251C15.5123 13.5764 15.3484 13.702 15.2488 13.8742C14.8395 14.5812 14.2115 15.1361 13.4594 15.4552C12.772 15.746 12.0134 15.8248 11.281 15.6816C10.5485 15.5383 9.8755 15.1795 9.34829 14.6512C9.11631 14.4193 8.91562 14.1581 8.75129 13.8742C8.65168 13.702 8.48775 13.5764 8.29557 13.5251C8.10339 13.4738 7.89869 13.5009 7.7265 13.6005C7.55432 13.7001 7.42876 13.864 7.37744 14.0562C7.32612 14.2484 7.35324 14.4531 7.45285 14.6253C7.91411 15.423 8.57708 16.0853 9.37523 16.5457C10.1734 17.0061 11.0786 17.2485 12 17.2485C12.9215 17.2485 13.8267 17.0061 14.6248 16.5456C15.423 16.0852 16.0859 15.4229 16.5472 14.6252C16.6467 14.453 16.6739 14.2483 16.6225 14.0562C16.5712 13.864 16.4457 13.7001 16.2735 13.6005V13.6004Z" fill="#ADB3BC"/>
</svg>
