<svg width="20" height="21" viewBox="0 0 20 21" fill="none" xmlns="http://www.w3.org/2000/svg">
<g clip-path="url(#clip0_198_5546)">
<path d="M19.805 10.7302C19.805 10.0504 19.7499 9.36699 19.6323 8.69824H10.2V12.5491H15.6015C15.3773 13.791 14.6571 14.8897 13.6026 15.5878V18.0864H16.825C18.7174 16.3448 19.805 13.7726 19.805 10.7302Z" fill="#4285F4"/>
<path d="M10.2 20.5008C12.897 20.5008 15.1715 19.6152 16.8287 18.0867L13.6062 15.588C12.7096 16.198 11.5522 16.5434 10.2037 16.5434C7.5948 16.5434 5.38279 14.7833 4.58911 12.417H1.26373V14.9928C2.96133 18.3696 6.41898 20.5008 10.2 20.5008Z" fill="#34A853"/>
<path d="M4.58546 12.4168C4.16657 11.1748 4.16657 9.82995 4.58546 8.58799V6.01221H1.26376C-0.154572 8.83785 -0.154572 12.1669 1.26376 14.9925L4.58546 12.4168Z" fill="#FBBC04"/>
<path d="M10.2 4.45805C11.6257 4.436 13.0036 4.97247 14.0361 5.95722L16.8911 3.10218C15.0833 1.40459 12.6839 0.471278 10.2 0.500674C6.41898 0.500674 2.96133 2.63185 1.26373 6.01234L4.58543 8.58813C5.37544 6.21811 7.59113 4.45805 10.2 4.45805Z" fill="#EA4335"/>
</g>
<defs>
<clipPath id="clip0_198_5546">
<rect width="20" height="20" fill="white" transform="translate(0 0.5)"/>
</clipPath>
</defs>
</svg>
