<svg width="45" height="45" viewBox="0 0 45 45" fill="none" xmlns="http://www.w3.org/2000/svg">
<rect width="45" height="45" rx="22.5" fill="#F7E6EC"/>
<path d="M13.5984 29.3844C13.4751 29.3844 13.3549 29.3325 13.2688 29.2389C13.15 29.1083 13.1203 28.9183 13.1916 28.7565C13.3371 28.4343 13.3638 28.1255 13.2732 27.839C13.199 27.6074 13.3267 27.3595 13.5568 27.2823L18.2124 25.728L22.7357 24.1944C22.9688 24.1157 23.2211 24.2404 23.2998 24.4735C23.3785 24.7066 23.2538 24.959 23.0207 25.0377L18.4959 26.5727L14.2086 28.0053C14.216 28.0899 14.2175 28.176 14.2145 28.2621L18.6223 26.7731C18.8539 26.6944 19.1063 26.8191 19.1864 27.0507L19.3958 27.6579C19.421 27.6668 19.4759 27.6743 19.5502 27.649L24.3912 26.0115C24.6243 25.9329 24.8766 26.0576 24.9553 26.2906C25.034 26.5237 24.9093 26.7761 24.6762 26.8548L19.8409 28.4893C19.5603 28.5888 19.2515 28.5769 18.9992 28.4551C18.7913 28.3542 18.6369 28.1864 18.5657 27.9816L18.4885 27.7574L13.7425 29.3607C13.6964 29.3771 13.6475 29.3845 13.5999 29.3845L13.5984 29.3844ZM27.7939 25.1503C27.6796 25.1503 27.5653 25.1058 27.4777 25.0182C27.304 24.843 27.3055 24.561 27.4806 24.3888C27.9008 23.9716 28.1071 23.5752 28.2066 23.2679L26.4519 23.8632C26.2188 23.9419 25.9664 23.8172 25.8877 23.5841C25.809 23.3511 25.9337 23.0987 26.1668 23.02L28.5941 22.1975C28.7203 22.1545 28.8583 22.1708 28.9711 22.2406C29.084 22.3104 29.1597 22.4262 29.179 22.5583C29.1864 22.6088 29.3363 23.8068 28.1086 25.0227C28.0225 25.1088 27.9082 25.1518 27.7954 25.1518L27.7939 25.1503Z" fill="#D9303C"/>
<path d="M10.9765 30.933C9.85563 30.933 8.86838 30.3659 8.54329 29.4262C8.12314 28.1673 9.02872 26.7273 10.5564 26.2092C11.4011 25.9242 12.2948 25.9613 13.0074 26.3146C13.5448 26.5803 13.9367 27.0123 14.1119 27.5319C14.29 28.0545 14.244 28.6379 13.9797 29.1753C13.6294 29.8864 12.9435 30.458 12.0973 30.7445C11.7217 30.8722 11.3431 30.9316 10.978 30.9316L10.9765 30.933ZM11.6876 26.9129C11.4085 26.9129 11.1205 26.9604 10.8414 27.0539C9.77544 27.4147 9.12225 28.35 9.38501 29.1397C9.6552 29.9191 10.7434 30.2635 11.8093 29.9028C12.4239 29.695 12.9361 29.2763 13.1781 28.7834C13.2909 28.5548 13.3978 28.2015 13.2672 27.8199C13.2672 27.8185 13.2672 27.8185 13.2657 27.817C13.1395 27.4414 12.8396 27.2261 12.611 27.1133C12.3408 26.9797 12.0216 26.9114 11.6876 26.9114L11.6876 26.9129Z" fill="#D9303C"/>
<path d="M16.0575 31.8519C15.9506 31.8519 15.8452 31.8133 15.762 31.739C15.6284 31.6203 15.5794 31.4332 15.6359 31.264L16.9007 27.5318C16.9452 27.3997 17.0491 27.2958 17.1813 27.2527L18.5352 26.8014C18.6955 26.748 18.8722 26.7895 18.9924 26.9098C19.1112 27.03 19.1528 27.2067 19.0978 27.367L17.7142 31.4407C17.637 31.6679 17.3936 31.7926 17.1649 31.7243C16.871 31.6352 16.5548 31.6649 16.2505 31.8104C16.1896 31.8401 16.1243 31.8535 16.059 31.8535L16.0575 31.8519ZM16.8265 30.7845C16.8829 30.7845 16.9378 30.786 16.9927 30.7904L17.9651 27.9297L17.6727 28.0277L16.7389 30.786C16.7686 30.7845 16.7983 30.7845 16.828 30.7845L16.8265 30.7845ZM17.7825 26.7761C17.6667 26.7761 17.5539 26.7316 17.4678 26.647C17.4455 26.6247 17.4262 26.6009 17.4084 26.5742L17.0165 26.4406C16.5459 26.2773 16.3188 25.6998 16.5073 25.152L18.3318 19.7572C19.7778 15.5041 22.3299 15.8112 22.4367 15.8276C22.5674 15.8454 22.6846 15.9226 22.7544 16.0354C22.8242 16.1482 22.839 16.2863 22.7975 16.411L21.0516 21.5774L19.5463 26.0117C19.5017 26.1424 19.4008 26.2448 19.2702 26.2894L18.5472 26.5402L17.9222 26.7525C17.8762 26.7689 17.8272 26.7763 17.7797 26.7763L17.7825 26.7761ZM17.3401 25.6093L17.9309 25.8097L18.262 25.6983L18.7757 25.5202L20.2112 21.2922L21.7314 16.7909C21.0663 17.0002 19.9722 17.7083 19.178 20.0435L17.3519 25.4398C17.3237 25.523 17.3326 25.5824 17.3401 25.6106L17.3401 25.6093Z" fill="#D9303C"/>
<path d="M16.2297 36.5595C16.0085 36.5595 15.7903 36.5239 15.581 36.4526C15.0599 36.2789 14.625 35.8855 14.3562 35.3481C14.0029 34.637 13.9643 33.7448 14.2508 32.9001C14.7689 31.371 16.2089 30.4669 17.4619 30.8855C17.4634 30.8855 17.4649 30.887 17.4649 30.887C18.7164 31.316 19.3132 32.9105 18.7951 34.4411C18.5085 35.2873 17.937 35.9731 17.2259 36.3235C16.9022 36.4823 16.5623 36.5625 16.2297 36.5625L16.2297 36.5595ZM16.8176 31.6709C16.1229 31.6709 15.4013 32.2781 15.094 33.1852C14.8862 33.7983 14.9085 34.459 15.1534 34.9518C15.2677 35.1819 15.4845 35.4833 15.866 35.6095C16.2505 35.7416 16.6038 35.6347 16.8325 35.5219C17.3254 35.2799 17.744 34.7677 17.9518 34.1531C18.3126 33.0872 17.9652 32.0005 17.1784 31.7288C17.0611 31.6902 16.9394 31.6709 16.8176 31.6709Z" fill="#D9303C"/>
<path d="M35.9505 34.0211C33.3065 34.0211 30.6937 33.4659 28.182 32.3673C26.1511 31.4796 24.1751 30.2355 22.3106 28.6678C22.1221 28.509 22.0983 28.2284 22.2557 28.0398C22.4146 27.8513 22.6951 27.8276 22.8837 27.9849C26.9456 31.3979 31.3412 33.1289 35.9478 33.1289H36.1081H36.1126C36.356 33.1289 36.5565 33.3263 36.558 33.5698C36.5594 33.8162 36.362 34.0167 36.117 34.0196H35.9537L35.9505 34.0211ZM17.8018 23.1944C17.6889 23.1944 17.5761 23.1513 17.4885 23.0667C15.5185 21.1219 14.0414 18.1455 13.0986 14.2173C12.4009 11.312 12.2746 9.00493 12.2702 8.9084C12.2568 8.66345 12.4469 8.45413 12.6918 8.44075C12.9368 8.4259 13.1461 8.61741 13.1595 8.86237C13.161 8.88464 13.2871 11.1976 13.9686 14.0257C14.5906 16.6088 15.8139 20.1627 18.1149 22.4327C18.29 22.6049 18.2915 22.887 18.1193 23.0622C18.0317 23.1498 17.9176 23.1944 17.8018 23.1944Z" fill="#D9303C"/>
<path d="M36.1126 31.6812C36.1008 31.6812 36.0889 31.6812 36.0785 31.6797C30.1893 31.2254 26.1467 28.3929 24.2628 26.7452C23.6007 26.1707 22.9802 25.5501 22.3641 24.8479C21.5698 23.9379 20.8365 22.9343 20.1818 21.8684C20.0526 21.6591 20.1194 21.3845 20.3287 21.2553C20.5381 21.1276 20.8127 21.1929 20.9419 21.4022C21.5698 22.4266 22.2735 23.3886 23.0351 24.2615C23.623 24.9325 24.2153 25.5249 24.8477 26.0741C26.6515 27.6507 30.5142 30.3573 36.1481 30.792C36.393 30.8113 36.5771 31.0251 36.5578 31.2701C36.54 31.5031 36.344 31.6813 36.1139 31.6813L36.1126 31.6812ZM19.107 19.3118C18.9526 19.3118 18.8027 19.2316 18.7211 19.0891C16.0192 14.3963 16.2136 9.0893 16.224 8.86507C16.2344 8.61863 16.4437 8.42714 16.6887 8.439C16.9352 8.44939 17.1252 8.65723 17.1148 8.90368C17.1118 8.969 16.9277 14.1871 19.4945 18.6439C19.6178 18.8577 19.5435 19.1294 19.3312 19.2526C19.2615 19.2927 19.1843 19.312 19.11 19.312L19.107 19.3118Z" fill="#D9303C"/>
<path d="M36.1131 28.7731C36.0879 28.7731 36.0612 28.7701 36.0344 28.7657C32.7595 28.1837 29.8705 26.9649 27.4477 25.1419C26.836 24.6772 26.2778 24.1991 25.7879 23.7196C24.0673 22.0525 22.651 20.0439 21.5823 17.7518C21.4784 17.5291 21.5749 17.2633 21.7976 17.1594C22.0203 17.0555 22.286 17.152 22.3899 17.3747C23.4128 19.5688 24.7652 21.4883 26.4085 23.0815C26.8732 23.5372 27.4032 23.99 27.9836 24.4309C30.2921 26.1679 33.0535 27.3318 36.1904 27.8885C36.4324 27.9315 36.5942 28.1631 36.5511 28.4051C36.5125 28.6204 36.3254 28.7731 36.1131 28.7731ZM21.465 16.7837C21.2987 16.7837 21.1398 16.6917 21.0641 16.5314C19.4029 13.0872 19.4029 9.05204 19.4044 8.8814C19.4059 8.63644 19.6048 8.4375 19.8498 8.4375H19.8527C20.0992 8.43898 20.2966 8.6394 20.2966 8.88436C20.2966 8.92444 20.2981 12.8882 21.8673 16.1425C21.9742 16.3637 21.8806 16.6309 21.6594 16.7378C21.5971 16.7675 21.5318 16.7824 21.4665 16.7824L21.465 16.7837Z" fill="#D9303C"/>
<path d="M32.2882 36.0755C32.2718 36.0755 32.254 36.074 32.2362 36.0725C28.8855 35.6895 25.8955 34.6281 23.3511 32.9193C23.1462 32.7827 23.0928 32.5051 23.2293 32.3017C23.3659 32.0969 23.6435 32.0434 23.8469 32.18C26.2727 33.8086 29.1288 34.8196 32.3372 35.1877C32.5821 35.216 32.7573 35.4372 32.7291 35.6806C32.7024 35.9078 32.5108 36.0755 32.2867 36.0755L32.2882 36.0755Z" fill="#D9303C"/>
</svg>
