<svg width="44" height="44" viewBox="0 0 44 44" fill="none" xmlns="http://www.w3.org/2000/svg">
<rect width="44" height="44" rx="11" fill="url(#paint0_linear_284_2793)"/>
<path d="M23.2402 12.5C23.4169 12.5 23.5645 12.6197 23.6016 12.793L23.6104 12.8701V20.8203H18.6299C17.9439 20.8205 17.3799 21.3843 17.3799 22.0703C17.3801 22.7457 17.9239 23.3187 18.6299 23.3086V23.3096H23.6006V31.1396C23.6006 31.3397 23.4379 31.5 23.2402 31.5C20.4146 31.5 18.0458 30.5165 16.3848 28.8555C14.7237 27.1944 13.7402 24.8256 13.7402 22C13.7402 19.1744 14.7237 16.8056 16.3848 15.1445C18.0458 13.4835 20.4146 12.5 23.2402 12.5Z" fill="white" stroke="white"/>
<path d="M26.9937 19.0439C27.0882 18.9494 27.2514 18.9488 27.3462 19.043L30.186 21.8936H30.187C30.284 21.9908 30.2747 22.1348 30.189 22.2148L30.1821 22.2207L30.1763 22.2275L27.3364 25.0762C27.2851 25.1275 27.2242 25.1504 27.1597 25.1504C27.0953 25.1503 27.0351 25.1273 26.9839 25.0762C26.8892 24.9814 26.8892 24.8183 26.9839 24.7236L29.397 22.3105H24.6001V21.8105H29.4067L28.5532 20.957L26.9937 19.3965C26.899 19.3018 26.8991 19.1387 26.9937 19.0439Z" fill="white" stroke="white"/>
<defs>
<linearGradient id="paint0_linear_284_2793" x1="-0.40367" y1="16.6222" x2="37.3" y2="20.6676" gradientUnits="userSpaceOnUse">
<stop stop-color="#D9303C"/>
<stop offset="0.987116" stop-color="#DE6C75"/>
</linearGradient>
</defs>
</svg>
