<svg width="146" height="130" viewBox="0 0 146 130" fill="none" xmlns="http://www.w3.org/2000/svg">
<path d="M78.0226 45.2485C88.8907 44.8647 97.719 54.2977 97.5785 64.97C97.4406 75.5345 88.9885 84.3679 78.5545 84.4331C68.5595 84.4984 58.7753 76.2871 58.5821 65.0202C58.404 54.5887 66.8385 44.7242 78.0226 45.2485ZM79.8114 48.091C74.3799 48.0308 72.4431 50.0152 72.2901 55.3288C72.2499 56.681 71.4898 58.0935 70.7998 59.3328C67.7366 64.8396 68.9158 70.6098 74.129 75.103C78.5971 78.954 85.1124 79.0292 89.6859 75.2836C94.41 71.4151 96.3166 64.6138 94.287 58.8812C92.0065 52.4537 86.2539 48.1637 79.8114 48.091Z" fill="#E02A3D"/>
<path d="M53.0577 0.0126883C64.5379 -0.253242 74.9744 10.0553 75.1023 21.9319C75.2378 34.3353 64.9368 44.8998 52.6362 44.9374C40.7496 44.975 30.7321 34.9123 30.559 22.8601C30.3909 11.109 40.5188 -0.436383 53.0577 0.0126883ZM35.8249 32.2154C36.0206 32.1501 36.2163 32.0849 36.4119 32.0222C36.3467 31.257 36.2238 30.4893 36.2288 29.7242C36.2489 25.0327 37.3678 20.7653 41.4872 17.958C44.9593 15.5922 48.6949 15.379 52.4405 17.3408C53.0025 17.6343 53.2885 18.4572 53.6999 19.0368C53.1279 19.3077 52.5785 19.6865 51.9739 19.8245C51.0732 20.0302 50.1299 20.0428 49.2117 20.1732C42.576 21.119 39.2945 28.3217 42.9548 33.8963C48.153 41.8115 62.1018 42.1025 68.3763 34.674C76.9362 24.541 73.0426 7.91785 59.3673 3.0433C47.0266 -1.35459 30.9227 8.55257 32.9097 24.9449C33.2283 27.5641 34.0236 30.1582 35.8249 32.2154Z" fill="#E02A3D"/>
<path d="M99.3647 46.2899C88.7751 46.2723 79.8238 37.3586 80.0145 26.6863C80.2327 14.471 89.2543 6.13183 100.406 6.44041C111.053 6.73645 119.435 13.6782 119.623 27.2708C119.776 38.0636 110.76 46.3099 99.3647 46.2899ZM116.748 24.3456C114.249 29.0395 112.985 30.4143 109.974 31.8092C106.299 33.5127 100.745 32.2909 98.6422 29.1373C98.1153 28.3471 98.2182 27.1353 98.03 26.1193C98.8755 25.9763 99.7284 25.6878 100.564 25.7329C101.387 25.7781 102.182 26.192 103.002 26.4003C106.485 27.2783 109.771 25.2864 110.426 21.9121C111.264 17.597 108.808 12.454 104.749 10.7104C99.3371 8.38723 94.031 8.6933 89.1489 12.2282C83.8353 16.0791 81.3516 21.4931 81.8584 27.8829C82.4354 35.1534 86.3065 40.5046 93.2458 43.1087C99.9869 45.6401 106.299 44.5638 111.909 39.9201C116.73 35.9311 118.692 28.8463 116.748 24.3456Z" fill="#E02A3D"/>
<path d="M83.2911 73.3113C78.5922 73.3489 76.0959 71.525 75.9805 68.7227C75.8927 66.5802 77.0267 65.4262 78.9384 64.8692C79.676 64.6535 80.4712 64.6234 81.1963 64.38C85.682 62.8748 86.9866 59.2571 84.4978 55.2481C84.0111 54.4628 83.3288 53.7829 82.9449 52.9576C82.689 52.4081 82.8019 51.6881 82.7492 51.0434C83.4115 51.0133 84.257 50.7022 84.7111 50.9957C91.1812 55.1879 95.5666 63.5822 89.0287 70.5416C87.2374 72.4457 84.9494 73.2586 83.2911 73.3113Z" fill="#E02A3D"/>
<path d="M58.4062 29.9096C58.4088 33.1685 55.9 35.7074 52.7439 35.6372C49.9416 35.5744 47.5457 33.0857 47.5081 30.1931C47.468 26.9969 49.8212 24.5283 52.9221 24.5132C55.9251 24.5007 58.4037 26.9417 58.4062 29.9096Z" fill="#E02A3D"/>
<path d="M0.95784 128.934L2.39788 128.41C2.49823 128.375 2.58102 128.324 2.64625 128.259C2.71148 128.194 2.74409 128.096 2.74409 127.966V118.661C2.74409 118.543 2.70897 118.45 2.63621 118.385C2.56346 118.319 2.48569 118.272 2.39788 118.242L0.95784 117.717V116.952H7.60359C8.59958 116.952 9.41744 117.03 10.0572 117.188C10.6969 117.346 11.1987 117.554 11.5675 117.818C11.9363 118.081 12.1871 118.385 12.3251 118.723C12.4631 119.065 12.5308 119.416 12.5308 119.777C12.5308 120.181 12.4631 120.55 12.3301 120.883C12.1972 121.217 12.004 121.516 11.7556 121.777C11.5073 122.037 11.2012 122.258 10.8449 122.444C10.4862 122.627 10.0873 122.773 9.64323 122.88V122.961C10.1977 122.991 10.7044 123.081 11.1661 123.237C11.6277 123.392 12.0241 123.598 12.3577 123.859C12.6914 124.12 12.9523 124.433 13.138 124.797C13.3261 125.161 13.4189 125.565 13.4189 126.009C13.4189 126.496 13.3462 126.927 13.1982 127.301C13.0527 127.677 12.852 128.001 12.6011 128.269C12.3477 128.538 12.0466 128.766 11.6954 128.949C11.3442 129.132 10.9628 129.28 10.5514 129.388C10.14 129.499 9.70846 129.576 9.25688 129.624C8.8053 129.672 8.34619 129.694 7.87705 129.694H0.960347V128.934H0.95784ZM6.68036 122.464C7.17961 122.464 7.59607 122.421 7.92723 122.339C8.26089 122.256 8.52933 122.135 8.73505 121.975C8.94077 121.814 9.08628 121.621 9.17409 121.393C9.2619 121.164 9.30454 120.906 9.30454 120.615C9.30454 119.845 9.11889 119.288 8.74759 118.944C8.3763 118.6 7.78423 118.43 6.96636 118.43H5.81734V122.464H6.68036ZM7.64122 128.214C8.46912 128.214 9.08628 128.054 9.4927 127.73C9.89662 127.406 10.0998 126.882 10.0998 126.152C10.0998 125.725 10.0471 125.364 9.94679 125.073C9.84644 124.782 9.68086 124.541 9.46009 124.358C9.23931 124.175 8.9483 124.042 8.58704 123.962C8.22577 123.881 7.78924 123.841 7.27745 123.841H5.81985V128.214H7.64122Z" fill="#E02A3D"/>
<path d="M15.1473 128.934L16.5874 128.41C16.6877 128.375 16.7705 128.324 16.8357 128.259C16.901 128.194 16.9336 128.096 16.9336 127.966V118.661C16.9336 118.543 16.8984 118.45 16.8307 118.385C16.763 118.319 16.6802 118.272 16.5874 118.242L15.1473 117.717V116.952H26.7856V120.525H25.5412L24.9993 118.784C24.9692 118.678 24.9215 118.595 24.8588 118.535C24.7961 118.475 24.7133 118.447 24.6054 118.447H20.0244V122.359H22.5482C22.6787 122.359 22.769 122.333 22.8192 122.283C22.8693 122.233 22.912 122.148 22.9496 122.03L23.4539 120.635H24.4925V125.515H23.4539L22.9496 124.127C22.9195 124.027 22.8769 123.944 22.8242 123.884C22.7715 123.821 22.6787 123.791 22.5482 123.791H20.0244V128.199H25.3254C25.4183 128.199 25.5011 128.169 25.5738 128.106C25.6466 128.043 25.6942 127.963 25.7193 127.863L26.2512 125.908H27.4955V129.704H15.1473V128.934Z" fill="#E02A3D"/>
<path d="M28.2432 128.934L29.2066 128.507C29.4299 128.412 29.593 128.249 29.6933 128.018L33.4991 118.881L34.6306 116.756H36.8182L41.3993 128.053C41.4419 128.159 41.5046 128.257 41.5824 128.347C41.6602 128.435 41.748 128.497 41.8483 128.533L42.8493 128.931V129.697H36.7731V128.931L38.3436 128.4L37.167 125.627H32.4655L31.3541 128.347L32.9422 128.934V129.699H28.2508V128.934H28.2432ZM36.5724 124.187L35.3004 121.076L34.9266 119.877H34.7686L33.0576 124.187H36.5724Z" fill="#E02A3D"/>
<path d="M50.23 130C49.3068 130 48.5015 129.895 47.8091 129.679C47.1167 129.466 46.5396 129.178 46.0755 128.814C45.6114 128.45 45.2627 128.023 45.0344 127.534C44.8036 127.045 44.6882 126.526 44.6882 125.974V118.658C44.6882 118.54 44.648 118.447 44.5702 118.382C44.4925 118.317 44.4022 118.269 44.3043 118.239L42.8919 117.715V116.95H49.5652V117.715L48.1352 118.239C48.0474 118.269 47.9671 118.317 47.8919 118.382C47.8166 118.447 47.779 118.54 47.779 118.658V125.128C47.779 125.359 47.794 125.597 47.8266 125.838C47.8567 126.082 47.9144 126.32 47.9947 126.553C48.075 126.787 48.1854 127.007 48.3259 127.211C48.4664 127.414 48.6495 127.597 48.8728 127.758C49.0961 127.918 49.3695 128.041 49.6856 128.131C50.0043 128.219 50.3781 128.264 50.8071 128.264C51.2311 128.264 51.6049 128.219 51.9285 128.131C52.2521 128.044 52.5356 127.918 52.774 127.758C53.0148 127.597 53.2155 127.411 53.3761 127.203C53.5391 126.992 53.6671 126.772 53.7649 126.536C53.8603 126.302 53.9305 126.059 53.9706 125.811C54.0108 125.562 54.0308 125.319 54.0308 125.083V118.711C54.0308 118.593 53.9957 118.503 53.923 118.445C53.8502 118.385 53.7699 118.34 53.6746 118.302L52.2546 117.715V116.95H57.5557V117.715L56.1257 118.302C56.0329 118.337 55.9501 118.385 55.8773 118.445C55.8046 118.505 55.7694 118.593 55.7694 118.711V125.59C55.7694 126.117 55.6841 126.593 55.5135 127.02C55.3429 127.446 55.1121 127.823 54.8211 128.149C54.5301 128.475 54.1989 128.756 53.8201 128.989C53.4438 129.223 53.0499 129.416 52.6385 129.564C52.227 129.712 51.8131 129.822 51.3941 129.893C50.9802 129.965 50.5913 130 50.23 130Z" fill="#E02A3D"/>
<path d="M61.6726 128.944L63.2055 128.412C63.3234 128.377 63.4137 128.327 63.4765 128.262C63.5392 128.196 63.5693 128.099 63.5693 127.968V118.422H60.8397C60.7268 118.422 60.639 118.45 60.5788 118.507C60.5161 118.563 60.4709 118.648 60.4383 118.761L59.8964 120.69H58.6721V116.957H71.5723V120.69H70.338L69.8061 118.761C69.776 118.653 69.7258 118.57 69.6556 118.512C69.5878 118.452 69.505 118.425 69.4122 118.425H66.6651V127.971C66.6651 128.101 66.7027 128.201 66.778 128.269C66.8533 128.337 66.9361 128.387 67.0314 128.415L68.5743 128.946V129.702H61.6752V128.944H61.6726Z" fill="#E02A3D"/>
<path d="M75.5061 128.934L77.0389 128.41C77.1518 128.375 77.2396 128.324 77.3049 128.259C77.3701 128.194 77.4027 128.096 77.4027 127.966V124.9L73.617 118.58C73.5668 118.485 73.5041 118.395 73.4288 118.309C73.3536 118.224 73.2607 118.156 73.1478 118.109L72.1017 117.717V116.952H78.2156V117.717L76.6827 118.242L79.0936 122.135L79.5979 123.229H79.7484L82.6837 118.314L81.1684 117.72V116.955H85.8523V117.72L84.8237 118.164C84.7309 118.207 84.6405 118.269 84.5578 118.36C84.475 118.447 84.4047 118.538 84.347 118.626L80.5061 124.847V127.966C80.5061 128.096 80.5362 128.194 80.5989 128.259C80.6616 128.324 80.7444 128.375 80.8523 128.41L82.3952 128.934V129.699H75.5061V128.934Z" fill="#E02A3D"/>
<path d="M91.2011 121.265L90.4711 120.101H90.3205V127.913C90.3205 128.044 90.3557 128.139 90.4284 128.197C90.5012 128.257 90.584 128.307 90.6768 128.347L92.0968 128.934V129.699H86.7681V128.934L88.2082 128.347C88.3085 128.305 88.3913 128.254 88.4565 128.192C88.5217 128.129 88.5544 128.036 88.5544 127.911V118.668C88.5544 118.55 88.5192 118.458 88.4515 118.392C88.3838 118.327 88.301 118.279 88.2082 118.249L86.7129 117.715V116.95H91.5448L97.1821 124.647L97.9021 125.783H98.0526V118.708C98.0526 118.591 98.02 118.505 97.9548 118.45C97.8895 118.397 97.7992 118.347 97.6888 118.299L96.2588 117.712V116.947H101.598V117.712L100.157 118.299C100.07 118.335 99.9894 118.382 99.9141 118.442C99.8388 118.503 99.8012 118.591 99.8012 118.708V127.72L99.5127 129.782H97.4656L91.2011 121.265Z" fill="#E02A3D"/>
<path d="M103.138 128.934L104.578 128.41C104.678 128.375 104.761 128.324 104.826 128.259C104.891 128.194 104.924 128.096 104.924 127.966V118.661C104.924 118.543 104.889 118.45 104.821 118.385C104.753 118.319 104.671 118.272 104.578 118.242L103.138 117.717V116.952H114.776V120.525H113.532L112.99 118.784C112.96 118.678 112.912 118.595 112.849 118.535C112.787 118.475 112.704 118.447 112.596 118.447H108.015V122.359H110.539C110.669 122.359 110.759 122.333 110.81 122.283C110.86 122.233 110.902 122.148 110.94 122.03L111.444 120.635H112.483V125.515H111.444L110.94 124.127C110.91 124.027 110.867 123.944 110.815 123.884C110.762 123.821 110.669 123.791 110.539 123.791H108.015V128.199H113.316C113.409 128.199 113.492 128.169 113.564 128.106C113.637 128.043 113.685 127.963 113.71 127.863L114.242 125.908H115.486V129.704H103.138V128.934Z" fill="#E02A3D"/>
<path d="M116.234 128.934L117.197 128.507C117.42 128.412 117.583 128.249 117.684 128.018L121.49 118.881L122.621 116.756H124.809L129.39 128.053C129.432 128.159 129.495 128.257 129.573 128.347C129.651 128.435 129.738 128.497 129.839 128.533L130.84 128.931V129.697H124.761V128.931L126.332 128.4L125.155 125.627H120.454L119.342 128.347L120.93 128.934V129.699H116.236V128.934H116.234ZM124.563 124.187L123.291 121.076L122.917 119.877H122.759L121.048 124.187H124.563Z" fill="#E02A3D"/>
<path d="M131.527 128.934L132.967 128.41C133.06 128.375 133.143 128.324 133.21 128.259C133.278 128.194 133.313 128.096 133.313 127.966V118.661C133.313 118.543 133.278 118.45 133.21 118.385C133.143 118.319 133.06 118.272 132.967 118.242L131.527 117.717V116.952H138.258C138.943 116.952 139.545 116.997 140.062 117.085C140.579 117.173 141.023 117.296 141.394 117.449C141.765 117.602 142.071 117.783 142.315 117.986C142.558 118.189 142.749 118.412 142.889 118.653C143.03 118.894 143.128 119.142 143.183 119.401C143.238 119.659 143.266 119.918 143.266 120.178C143.266 120.67 143.185 121.102 143.022 121.475C142.859 121.849 142.651 122.17 142.395 122.439C142.139 122.71 141.853 122.933 141.535 123.114C141.216 123.294 140.905 123.437 140.599 123.545L143.74 127.918C143.782 127.971 143.833 128.028 143.885 128.091C143.938 128.154 143.998 128.212 144.063 128.264C144.129 128.317 144.196 128.367 144.269 128.41C144.342 128.455 144.41 128.485 144.48 128.503L145.91 128.929V129.694H142.48C142.162 129.694 141.911 129.672 141.723 129.624C141.535 129.576 141.377 129.504 141.246 129.406C141.116 129.308 140.998 129.182 140.895 129.027C140.792 128.874 140.667 128.688 140.516 128.475L137.674 124.351L136.402 124.039V127.958C136.402 128.089 136.437 128.186 136.505 128.252C136.572 128.317 136.66 128.367 136.765 128.402L138.233 128.927V129.692H131.522V128.934H131.527ZM137.754 122.971C138.14 122.971 138.474 122.903 138.755 122.77C139.036 122.637 139.267 122.464 139.447 122.251C139.628 122.037 139.761 121.792 139.849 121.513C139.937 121.235 139.979 120.951 139.979 120.66C139.979 119.885 139.773 119.318 139.362 118.962C138.951 118.605 138.353 118.427 137.568 118.427H136.409V122.863C136.459 122.875 136.542 122.885 136.663 122.898C136.78 122.911 136.908 122.921 137.046 122.933C137.184 122.946 137.317 122.953 137.448 122.961C137.576 122.968 137.679 122.971 137.754 122.971Z" fill="#E02A3D"/>
<path d="M0.0897827 31.8895L2.52079 31.6913C2.59856 31.6838 2.65878 31.6687 2.73906 31.6236L6.81331 29.5488L6.9262 30.9211C5.88004 31.3953 4.59304 31.9723 3.85797 32.2382C4.72099 32.4214 6.04813 32.7877 7.09931 33.0511L7.20468 34.3481L2.82937 32.9432C2.77919 32.9256 2.70142 32.9131 2.59355 32.9231L0.187625 33.1188L0.0897827 31.8895Z" fill="#DD2C3E"/>
<path d="M4.78629 40.587C2.3026 41.016 1.10591 40.5268 0.834962 38.9613C0.584085 37.4987 1.52488 36.6031 4.03867 36.1691C6.48975 35.7476 7.6187 36.4049 7.85955 37.8073C8.11795 39.2875 7.14454 40.1806 4.78629 40.587ZM4.26697 37.4134C2.65634 37.6919 1.74063 38.1008 1.86356 38.8133C1.99402 39.5635 2.91725 39.6237 4.59813 39.3352C6.17615 39.0642 6.95889 38.6929 6.83095 37.9553C6.703 37.2303 5.77977 37.1525 4.26697 37.4134Z" fill="#DD2C3E"/>
<path d="M8.9108 43.1986L4.33729 44.4555C3.79289 44.606 3.18325 44.9196 3.38396 45.6497C3.57964 46.3571 4.16419 46.3596 4.80393 46.184L9.38496 44.9246L9.71361 46.1163L5.11501 47.3807C3.92083 47.7094 2.8245 47.5112 2.38295 45.9055C1.94893 44.325 2.73418 43.615 3.98606 43.2688L8.58465 42.0044L8.9108 43.1986Z" fill="#DD2C3E"/>
<path d="M7.15956 50.7878L4.41495 51.834L3.97842 50.6875L10.4185 48.2339L11.1686 50.2058C11.6152 51.3749 11.2564 52.273 10.1074 52.7095C9.17662 53.0633 8.58454 52.7196 8.32363 52.4336C8.28098 53.0206 7.94731 53.4195 6.99648 53.7808L6.74059 53.8786C6.00803 54.1571 5.74962 54.2951 5.42599 54.4782L5.00201 53.3618C5.26041 53.1561 5.76467 52.9454 6.31911 52.7321L6.55243 52.6418C7.41294 52.3132 7.6287 52.0046 7.35273 51.277L7.15956 50.7878ZM8.09282 50.4341L8.29854 50.976C8.56448 51.6734 8.96587 51.8315 9.61816 51.5831C10.1726 51.3724 10.3934 50.9835 10.1676 50.3939L9.91921 49.7392L8.09282 50.4341Z" fill="#DD2C3E"/>
<path d="M10.1602 59.925C9.68853 60.2536 9.35737 60.6977 9.66093 61.2496C9.95446 61.7815 10.396 61.7965 10.8451 61.5482C11.3418 61.2747 11.4948 60.8708 11.4397 59.9074C11.3619 58.6029 11.5726 57.9606 12.4683 57.4664C13.4366 56.932 14.4402 57.1904 15.0423 58.2817C15.7899 59.639 15.0573 60.4819 14.2796 60.931L13.695 59.8723C14.0212 59.6465 14.4803 59.2777 14.1792 58.7308C13.9434 58.3018 13.5596 58.2642 13.1506 58.49C12.7166 58.7308 12.6188 59.0344 12.679 59.9225C12.7743 61.2822 12.5561 62.0349 11.545 62.5918C10.5967 63.1136 9.49033 62.9581 8.78787 61.6836C8.0227 60.2963 8.68 59.3831 9.56309 58.8462L10.1602 59.925Z" fill="#DD2C3E"/>
<path d="M16.6652 63.2814L15.8473 62.0571L16.7455 61.4575L19.0686 64.9322L18.1705 65.5318L17.3526 64.3075L12.5207 67.5388L11.8333 66.5102L16.6652 63.2814Z" fill="#DD2C3E"/>
<path d="M15.7093 71.8694L17.6059 70.3366C17.6686 70.2864 17.7087 70.2387 17.7489 70.1585L19.9466 66.1494L20.8121 67.2207C20.215 68.1991 19.4774 69.4033 19.0183 70.038C19.8337 69.7018 21.1357 69.2578 22.1543 68.884L22.9722 69.8975L18.5668 71.2021C18.5166 71.2172 18.4438 71.2498 18.361 71.3175L16.4845 72.8353L15.7093 71.8694Z" fill="#DD2C3E"/>
<path d="M24.0462 71.0586L24.8991 71.9517L20.6769 75.9858L22.3051 77.6918L21.4596 78.3315L19.0587 75.8203L24.0462 71.0586Z" fill="#DD2C3E"/>
<path d="M27.852 80.0203L26.1962 78.5527L24.8691 80.0504L26.7281 81.6987L25.9102 82.3936L23.2534 80.0404L27.8244 74.8823L30.4687 77.228L29.7537 78.0359L28.0201 76.5005L26.9062 77.7549L28.562 79.2225L27.852 80.0203Z" fill="#DD2C3E"/>
<path d="M26.9538 84.6112C27.8444 84.0417 28.6798 83.3167 29.0411 82.8877L29.9543 83.5927C29.2844 84.3052 28.3888 84.9298 27.7139 85.1958L26.9538 84.6112Z" fill="#DD2C3E"/>
<path d="M34.7914 88.7707L36.0483 86.6808C36.0884 86.6131 36.111 86.5554 36.121 86.4651L36.8134 81.9468L37.9951 82.6568C37.7693 83.7807 37.4883 85.163 37.2751 85.9157C37.9273 85.3211 38.9986 84.4581 39.8265 83.7581L40.9429 84.4305L37.25 87.1625C37.2073 87.1926 37.1521 87.2503 37.0969 87.3407L35.8526 89.4079L34.7914 88.7707Z" fill="#DD2C3E"/>
<path d="M44.5954 90.0302C43.4941 92.2956 42.4002 92.983 40.9702 92.2906C39.6356 91.6433 39.4575 90.3538 40.5713 88.0608C41.6576 85.8255 42.8518 85.2911 44.1313 85.9108C45.4835 86.5681 45.6416 87.8776 44.5954 90.0302ZM41.7154 88.6027C41.0003 90.0728 40.7996 91.0563 41.4494 91.3724C42.1343 91.706 42.7239 90.991 43.4665 89.4582C44.1664 88.0181 44.322 87.1677 43.6496 86.839C42.9873 86.5154 42.3852 87.2203 41.7154 88.6027Z" fill="#DD2C3E"/>
<path d="M49.1264 88.2064L47.4807 92.6519C47.285 93.1813 47.1847 93.8586 47.8946 94.122C48.582 94.3754 48.9257 93.9013 49.1566 93.2816L50.8048 88.8285L51.9639 89.2575L50.3106 93.7282C49.8816 94.8872 49.0788 95.6649 47.5183 95.0854C45.9829 94.5159 45.8625 93.4647 46.3116 92.248L47.9649 87.7773L49.1264 88.2064Z" fill="#DD2C3E"/>
<path d="M54.2696 94.0544L53.5169 96.8943L52.3303 96.5807L54.094 89.9199L56.1336 90.4593C57.3453 90.7804 57.8647 91.5933 57.5486 92.7824C57.2927 93.7458 56.668 94.0243 56.2841 94.0695C56.7357 94.4483 56.8637 94.95 56.6027 95.9335L56.5325 96.1994C56.3318 96.9571 56.2942 97.2481 56.254 97.6194L55.1 97.3133C55.0824 96.9821 55.2054 96.4503 55.3584 95.8758L55.4236 95.6324C55.6594 94.7418 55.534 94.3856 54.7814 94.1874L54.2696 94.0544ZM54.5255 93.0885L55.0849 93.2365C55.8049 93.4272 56.1687 93.1914 56.3468 92.519C56.4999 91.9445 56.3117 91.5406 55.7021 91.38L55.0247 91.2019L54.5255 93.0885Z" fill="#DD2C3E"/>
<path d="M63.9834 93.0986L62.5207 92.9179L62.6537 91.8467L66.8032 92.3585L66.6703 93.4297L65.2077 93.2491L64.4977 99.0168L63.2709 98.8663L63.9834 93.0986Z" fill="#DD2C3E"/>
<path d="M69.9115 92.5389L69.5427 99.4204L68.3084 99.3552L68.6772 92.4736L69.9115 92.5389Z" fill="#DD2C3E"/>
<path d="M76.6502 96.849C76.6151 95.6724 76.5925 94.3302 76.59 93.5475H76.5624C76.3642 94.8621 76.0556 97.1978 75.6718 99.4431L74.5579 99.4782C74.159 97.411 73.6873 94.9524 73.4264 93.6278H73.3888C73.454 94.4306 73.5293 95.8731 73.5669 97.0623L73.6422 99.5058L72.5157 99.541L72.3025 92.6544L74.1464 92.5967C74.5654 94.4883 74.9417 96.4025 75.1098 97.4035H75.1199C75.2302 96.4652 75.599 94.3754 75.9026 92.544L77.7014 92.4888L77.9146 99.3754L76.733 99.413L76.6502 96.849Z" fill="#DD2C3E"/>
<path d="M83.9133 95.592L81.7206 95.8805L81.9815 97.865L84.4426 97.5413L84.4301 98.6151L80.9102 99.0792L80.0096 92.2453L83.5144 91.7837L83.6548 92.8549L81.3593 93.1585L81.5801 94.8218L83.7728 94.5333L83.9133 95.592Z" fill="#DD2C3E"/>
<path d="M86.7832 99.28C86.9338 98.2338 86.9363 97.13 86.846 96.5755L87.9774 96.3447C88.0778 97.3156 87.9649 98.4044 87.724 99.0868L86.7832 99.28Z" fill="#DD2C3E"/>
<path d="M90.845 97.2754L90.2279 94.9171C90.2078 94.8419 90.1802 94.7842 90.125 94.7139L87.3729 91.0611L88.705 90.7124C89.3523 91.6607 90.1451 92.8273 90.5339 93.5047C90.5641 92.6216 90.6945 91.2543 90.7723 90.1705L92.0317 89.8394L91.407 94.3928C91.3995 94.4455 91.402 94.5258 91.4271 94.6286L92.0392 96.9618L90.845 97.2754Z" fill="#DD2C3E"/>
<path d="M98.5895 91.1365C99.4425 93.5073 99.1715 94.7717 97.6763 95.3086C96.2814 95.8104 95.2327 95.0402 94.3697 92.6418C93.5268 90.3036 93.9783 89.0743 95.3155 88.5926C96.728 88.0833 97.7791 88.8861 98.5895 91.1365ZM95.5564 92.2027C96.1108 93.7406 96.6728 94.571 97.3552 94.3277C98.0727 94.0693 97.9698 93.1485 97.3928 91.5454C96.8509 90.0402 96.3491 89.3327 95.6442 89.5861C94.9492 89.8344 95.0345 90.7577 95.5564 92.2027Z" fill="#DD2C3E"/>
<path d="M100.451 86.6184L102.486 90.9009C102.729 91.4102 103.143 91.9546 103.828 91.6309C104.49 91.3148 104.39 90.7378 104.106 90.1407L102.069 85.8507L103.186 85.3188L105.233 89.6264C105.765 90.7428 105.76 91.8592 104.257 92.5742C102.777 93.2767 101.939 92.6269 101.382 91.4553L99.3347 87.1503L100.451 86.6184Z" fill="#DD2C3E"/>
<path d="M108.226 87.0196L109.733 89.5409L108.68 90.1706L105.145 84.255L106.956 83.1712C108.033 82.5289 108.976 82.7246 109.608 83.7808C110.12 84.6363 109.881 85.2785 109.646 85.5871C110.233 85.5269 110.682 85.7878 111.204 86.6609L111.344 86.8967C111.745 87.569 111.929 87.7998 112.164 88.0884L111.138 88.7005C110.89 88.4822 110.594 88.0231 110.29 87.5113L110.162 87.2956C109.691 86.5053 109.347 86.3448 108.68 86.7462L108.226 87.0196ZM107.711 86.1616L108.208 85.8656C108.848 85.4842 108.933 85.0577 108.577 84.4607C108.273 83.9514 107.852 83.8009 107.31 84.1245L106.708 84.4832L107.711 86.1616Z" fill="#DD2C3E"/>
<path d="M112.917 79.1596L114.55 77.8375C115.481 77.0848 116.407 77.1877 117.089 78.0306C117.636 78.7055 117.578 79.2951 117.372 79.6463C117.877 79.4958 118.554 79.5234 119.204 80.3287C120.027 81.3472 119.816 82.4411 118.863 83.2113L117.25 84.5158L112.917 79.1596ZM116.05 80.1656C116.647 79.6839 116.615 79.3277 116.244 78.8661C115.865 78.3994 115.443 78.3819 114.972 78.7632L114.475 79.1646L115.589 80.5419L116.05 80.1656ZM117.586 83.0106L118.158 82.5464C118.637 82.1601 118.715 81.6909 118.228 81.0888C117.781 80.5369 117.29 80.3964 116.66 80.9082L116.191 81.287L117.586 83.0106Z" fill="#DD2C3E"/>
<path d="M122.761 75.5749L121.171 77.1103L122.561 78.5503L124.347 76.8243L124.974 77.6948L122.42 80.1609L117.636 75.2036L120.177 72.75L120.928 73.5277L119.262 75.1359L120.426 76.3426L122.016 74.8072L122.761 75.5749Z" fill="#DD2C3E"/>
<path d="M126.357 73.6404L127.446 75.0328L126.638 75.9686L122.461 70.2586L123.507 69.0469L129.779 72.3259L128.933 73.3068L127.395 72.4337L126.357 73.6404ZM126.445 71.8994C125.278 71.232 124.412 70.7579 123.845 70.4117L123.825 70.4342C124.252 70.9134 124.892 71.7539 125.689 72.7774L126.445 71.8994Z" fill="#DD2C3E"/>
<path d="M126.304 65.492L130.167 68.2391C130.627 68.5653 131.254 68.8412 131.695 68.2216C132.122 67.6245 131.753 67.1679 131.211 66.784L127.343 64.0319L128.06 63.0259L131.946 65.788C132.955 66.5056 133.494 67.4815 132.528 68.8387C131.577 70.1734 130.531 70.0153 129.475 69.2627L125.589 66.5005L126.304 65.492Z" fill="#DD2C3E"/>
<path d="M130.687 60.8181L129.944 62.0901L129.011 61.5457L131.116 57.9355L132.049 58.4799L131.307 59.7519L136.327 62.6797L135.704 63.7459L130.687 60.8181Z" fill="#DD2C3E"/>
<path d="M138.825 57.9104L136.615 56.8792C136.542 56.8466 136.482 56.8291 136.392 56.8291L131.823 56.6133L132.405 55.3639C133.547 55.4718 134.952 55.6073 135.725 55.7403C135.065 55.1532 134.096 54.1773 133.311 53.4272L133.863 52.248L136.966 55.6374C137.002 55.6775 137.064 55.7277 137.16 55.7729L139.345 56.794L138.825 57.9104Z" fill="#DD2C3E"/>
<path d="M140.933 53.131L134.447 50.8054L134.919 49.4858C138.983 49.4306 139.761 49.418 140.105 49.4531L140.107 49.4431C139.309 49.2198 138.354 48.8786 137.29 48.4973L135.501 47.855L135.872 46.8164L142.358 49.142L141.904 50.4065C137.586 50.4215 136.808 50.419 136.48 50.3964L136.477 50.4065C137.292 50.6448 138.248 50.986 139.41 51.4025L141.301 52.0798L140.933 53.131Z" fill="#DD2C3E"/>
<path d="M141.103 42.2002L140.554 44.3427L142.493 44.8394L143.11 42.4335L144.101 42.8449L143.218 46.2819L136.545 44.5685L137.423 41.1465L138.469 41.4149L137.892 43.6578L139.518 44.0742L140.067 41.9317L141.103 42.2002Z" fill="#DD2C3E"/>
<path d="M143.15 38.6579L144.809 39.2701L144.613 40.4894L138.062 37.8225L138.316 36.242L145.376 35.7402L145.17 37.0197L143.404 37.0849L143.15 38.6579ZM142.31 37.1326C140.968 37.1778 139.982 37.2279 139.317 37.2304L139.312 37.2606C139.924 37.4437 140.912 37.8225 142.127 38.2741L142.31 37.1326Z" fill="#DD2C3E"/>
<path d="M142.769 31.9619L145.702 32.1601L145.619 33.3844L138.742 32.9178L138.885 30.8129C138.971 29.5636 139.671 28.8987 140.897 28.9815C141.891 29.0493 142.285 29.6112 142.403 29.98C142.689 29.4632 143.158 29.2424 144.174 29.3127L144.447 29.3302C145.228 29.3829 145.524 29.3654 145.895 29.3353L145.815 30.5269C145.493 30.6047 144.947 30.5871 144.354 30.547L144.104 30.5294C143.185 30.4667 142.859 30.6574 142.807 31.4351L142.769 31.9619ZM141.77 31.8942L141.811 31.3172C141.861 30.5746 141.56 30.261 140.865 30.2133C140.273 30.1732 139.911 30.4341 139.866 31.0638L139.819 31.7637L141.77 31.8942Z" fill="#DD2C3E"/>
</svg>
