<svg width="36" height="33" viewBox="0 0 36 33" fill="none" xmlns="http://www.w3.org/2000/svg">
<path d="M14.1792 2.8424L14.8144 3.47796L14.8989 3.39348L14.2555 2.7583L14.1792 2.8424Z" fill="#D9303C"/>
<path d="M11.6223 2.91941L12.5179 2.83493L12.5024 2.72021L11.6068 2.80431L11.6223 2.91941Z" fill="#D9303C"/>
<path d="M12.4489 2.27582L12.4872 2.38317L13.3293 2.06926L13.291 1.96191L12.4489 2.27582Z" fill="#D9303C"/>
<path d="M13.3217 0.974368L12.4339 0.821289L12.411 0.936001L13.2989 1.08172L13.3217 0.974368Z" fill="#D9303C"/>
<path d="M13.3602 3.59281L13.5133 2.70495L13.3986 2.68945L13.2451 3.57731L13.3602 3.59281Z" fill="#D9303C"/>
<path d="M35.2474 11.1871C34.794 11.3111 34.3068 11.4397 33.3027 11.2483C33.0489 10.6228 32.4935 9.53188 31.1515 9.54118C30.729 9.58149 30.4795 9.72643 30.1869 9.86284C29.5381 9.98879 28.7239 9.39237 28.2422 8.98235C28.1387 8.91841 28.0798 8.91918 28.005 8.92112C26.5591 9.08699 25.2477 8.32547 23.9401 7.61976C21.9501 5.41349 20.1674 3.47036 17.655 1.01296C17.5906 0.971104 17.5418 0.961028 17.5019 0.966841C17.436 0.986993 17.3976 1.03195 17.4023 1.07419C17.4034 1.07419 17.4093 1.09705 17.41 1.09705C19.0257 3.48586 20.3313 5.19142 21.3602 6.53232C19.7554 5.80839 17.3166 4.73606 15.1441 3.90634C15.0922 3.94238 15.0708 4.00322 15.0829 4.06717C15.1046 4.12646 15.1433 4.19428 15.2131 4.2435C16.9151 5.42317 20.1 7.26671 23.0445 8.7909C23.0507 8.81687 23.0724 8.8192 23.0751 8.82927C23.0751 8.82927 23.8727 9.72255 24.4075 10.4368C24.5869 10.7243 24.6733 10.9166 24.7369 11.1332C24.9628 13.0922 25.0551 13.057 24.7826 16.1476C24.7818 16.4061 24.8105 16.6646 24.8593 16.8983C25.1376 17.9376 25.9611 18.5782 26.8343 18.3294C27.6334 18.0923 27.8213 17.6098 28.8402 16.186C28.9006 16.16 28.8057 16.0089 28.8557 15.9717L28.9777 15.8798C29.1029 15.786 29.1219 15.5833 29.0239 15.4589C28.9278 15.3349 28.7359 15.2977 28.6104 15.3977L28.2964 15.4206C27.7574 15.3167 27.7027 14.6203 26.5816 14.4637C25.6058 14.2452 25.4627 13.4019 25.4178 12.6113C25.3763 11.8319 25.4569 11.3929 25.3414 11.172C25.305 10.4841 25.3124 9.96167 25.2651 9.80161C25.5922 9.65977 26.2161 9.34974 26.6432 9.34974C28.9812 9.51754 29.4936 10.3891 29.6672 10.965C29.7974 11.2394 29.7346 11.5316 29.8125 11.792C30.0272 12.4807 31.258 13.0376 32.1401 12.8485C32.9121 12.6826 33.2961 12.2381 33.3802 11.8071C34.5572 11.6893 34.7951 11.835 35.2253 11.9447C35.3493 11.9769 35.4392 11.7137 35.4396 11.5847C35.4388 11.4552 35.3714 11.1561 35.2474 11.1871ZM23.4654 8.74479C23.1763 8.74479 22.9371 8.51343 22.9371 8.22432C22.9371 7.93521 23.1763 7.6961 23.4654 7.6961C23.7545 7.6961 23.9862 7.93521 23.9862 8.22432C23.9862 8.51381 23.7549 8.74479 23.4654 8.74479ZM26.2677 14.8772C26.3006 14.8772 26.3254 14.8582 26.3591 14.854C26.3909 14.8501 26.427 14.8462 26.4587 14.8462C26.9362 14.8501 27.4214 15.3113 27.5768 16.0251C27.7713 16.9126 27.3129 17.559 26.7804 17.702C26.2479 17.8458 25.6922 17.3238 25.5019 16.6991C25.2849 15.9883 25.441 15.0985 26.2677 14.8772ZM31.9862 12.259C31.3972 12.4187 30.6655 11.9974 30.5012 11.3863C30.3361 10.7736 30.5306 10.2016 31.1519 10.062C31.1894 10.062 31.2294 10.0388 31.2669 10.0388V10.0465C31.8273 10.0062 32.3974 10.5775 32.5373 11.1565C32.6501 11.6773 32.5028 12.1203 31.9862 12.259Z" fill="#D9303C"/>
<path d="M11.9358 2.31429L11.6222 1.47217L11.5149 1.51053L11.8288 2.35266L11.9358 2.31429Z" fill="#D9303C"/>
<path d="M13.3292 4.14392L14.1101 3.6998L14.0567 3.60059L13.2758 4.05207L13.3292 4.14392Z" fill="#D9303C"/>
<path d="M17.2953 2.4368L16.5141 1.99268L16.4606 2.08452L17.2415 2.5364L17.2953 2.4368Z" fill="#D9303C"/>
<path d="M5.55136 9.46424C7.46387 13.3408 9.70735 13.3125 11.0327 13.3226C9.51629 11.8716 9.06519 11.0718 9.06519 11.0718C9.06519 11.0718 13.6083 13.2544 17.6395 14.5166C19.4311 15.468 19.0126 17.4611 19.3009 17.4794C20.0105 14.6003 20.25 12.9998 20.25 11.5922C20.25 7.90632 16.9865 4.8339 12.6709 4.15105L12.755 4.09757L12.2345 3.36279L12.1427 3.42402L12.6631 4.15105C12.0779 4.05882 11.4749 4.01347 10.8564 4.01347C5.67382 4.01347 1.7616 7.40446 1.7616 11.5926C1.7616 13.6772 2.21696 14.4833 2.64984 14.8921C2.64984 14.8921 3.49817 11.8333 5.55136 9.46424Z" fill="#D9303C"/>
<path d="M16.3458 26.2838C16.35 26.1943 16.3458 26.1083 16.3458 26.016C16.3458 25.7684 16.3144 25.2995 16.2845 24.8755C14.8375 26.5977 12.9769 27.6394 10.9334 27.6394C9.03519 27.6394 7.27459 26.7361 5.87286 25.2278C5.85813 25.4843 5.82674 25.8471 5.82674 26.016C5.82674 26.1241 5.83643 26.2307 5.84224 26.3377C5.53415 26.6473 5.17257 26.988 4.68621 27.3864C3.5449 28.3231 2.06488 29.0191 0.560059 29.6907C0.892956 31.0986 2.14781 32.1403 3.66039 32.1403H26.4435C24.0865 30.2371 20.2464 29.6461 17.7622 27.6084C17.1402 27.0984 16.6942 26.6628 16.3458 26.2838Z" fill="#D9303C"/>
<path d="M16.1313 3.47787L16.2309 3.41625L15.779 2.63574L15.6798 2.69697L16.1313 3.47787Z" fill="#D9303C"/>
<path d="M16.3535 1.82434L15.6645 1.25L15.5878 1.3341L16.2846 1.90843L16.3535 1.82434Z" fill="#D9303C"/>
<path d="M14.5161 2.32915L14.4549 2.2373L13.7201 2.75816L13.7809 2.85776L14.5161 2.32915Z" fill="#D9303C"/>
<path d="M15.2585 1.02035L14.9446 0.178223L14.8373 0.216589L15.1512 1.05872L15.2585 1.02035Z" fill="#D9303C"/>
<path d="M17.2411 3.746L17.693 2.9651L17.5934 2.91162L17.1493 3.69252L17.2411 3.746Z" fill="#D9303C"/>
<path d="M15.6567 2.02331L14.7839 1.78613L14.7533 1.90084L15.626 2.13066L15.6567 2.02331Z" fill="#D9303C"/>
<path d="M14.0413 0.140137H13.9343V1.04349H14.0413V0.140137Z" fill="#D9303C"/>
<path d="M14.133 2.0081L14.5771 1.22721L14.4853 1.17334L14.0338 1.95462L14.133 2.0081Z" fill="#D9303C"/>
<path d="M15.3583 3.50101L15.5955 2.62827L15.4808 2.59766L15.251 3.4704L15.3583 3.50101Z" fill="#D9303C"/>
</svg>
