<svg width="350" height="24" viewBox="0 0 350 24" fill="none" xmlns="http://www.w3.org/2000/svg">
<rect y="11.5" width="143" height="1" fill="#E5E7EB"/>
<path d="M171.928 18.1761C171.109 18.1761 170.395 17.9886 169.786 17.6136C169.176 17.2386 168.702 16.714 168.365 16.0398C168.028 15.3655 167.859 14.5777 167.859 13.6761C167.859 12.7708 168.028 11.9792 168.365 11.3011C168.702 10.6231 169.176 10.0966 169.786 9.72159C170.395 9.34659 171.109 9.15909 171.928 9.15909C172.746 9.15909 173.46 9.34659 174.07 9.72159C174.679 10.0966 175.153 10.6231 175.49 11.3011C175.827 11.9792 175.996 12.7708 175.996 13.6761C175.996 14.5777 175.827 15.3655 175.49 16.0398C175.153 16.714 174.679 17.2386 174.07 17.6136C173.46 17.9886 172.746 18.1761 171.928 18.1761ZM171.933 16.75C172.464 16.75 172.903 16.6098 173.251 16.3295C173.6 16.0492 173.857 15.6761 174.024 15.2102C174.195 14.7443 174.28 14.2311 174.28 13.6705C174.28 13.1136 174.195 12.6023 174.024 12.1364C173.857 11.6667 173.6 11.2898 173.251 11.0057C172.903 10.7216 172.464 10.5795 171.933 10.5795C171.399 10.5795 170.956 10.7216 170.604 11.0057C170.255 11.2898 169.996 11.6667 169.825 12.1364C169.659 12.6023 169.575 13.1136 169.575 13.6705C169.575 14.2311 169.659 14.7443 169.825 15.2102C169.996 15.6761 170.255 16.0492 170.604 16.3295C170.956 16.6098 171.399 16.75 171.933 16.75ZM177.892 18V9.27273H179.534V10.6591H179.625C179.784 10.1894 180.064 9.82008 180.466 9.55114C180.871 9.27841 181.33 9.14205 181.841 9.14205C181.947 9.14205 182.072 9.14583 182.216 9.15341C182.364 9.16098 182.479 9.17045 182.562 9.18182V10.8068C182.494 10.7879 182.373 10.767 182.199 10.7443C182.025 10.7178 181.85 10.7045 181.676 10.7045C181.275 10.7045 180.917 10.7898 180.602 10.9602C180.292 11.1269 180.045 11.3598 179.864 11.6591C179.682 11.9545 179.591 12.2917 179.591 12.6705V18H177.892Z" fill="#6B7280"/>
<rect x="207" y="11.5" width="143" height="1" fill="#E5E7EB"/>
</svg>
