<svg width="44" height="44" viewBox="0 0 44 44" fill="none" xmlns="http://www.w3.org/2000/svg">
<rect width="44" height="44" rx="11" fill="url(#paint0_linear_284_2753)"/>
<path d="M25.22 15.5498H15.78C15.5 15.5498 15.24 15.5598 15 15.5698C12.63 15.7098 12 16.5798 12 19.2798V19.8598C12 20.4098 12.45 20.8598 13 20.8598H28C28.55 20.8598 29 20.4098 29 19.8598V19.2798C29 16.2998 28.24 15.5498 25.22 15.5498Z" fill="white"/>
<path d="M13 22.3599C12.45 22.3599 12 22.8099 12 23.3599V26.2699C12 29.2499 12.76 29.9999 15.78 29.9999H25.22C28.19 29.9999 28.97 29.2799 29 26.4299V23.3599C29 22.8099 28.55 22.3599 28 22.3599H13ZM16.96 27.5599H15.25C14.84 27.5599 14.5 27.2199 14.5 26.8099C14.5 26.3999 14.84 26.0599 15.25 26.0599H16.97C17.38 26.0599 17.72 26.3999 17.72 26.8099C17.72 27.2199 17.38 27.5599 16.96 27.5599ZM22.55 27.5599H19.11C18.7 27.5599 18.36 27.2199 18.36 26.8099C18.36 26.3999 18.7 26.0599 19.11 26.0599H22.55C22.96 26.0599 23.3 26.3999 23.3 26.8099C23.3 27.2199 22.97 27.5599 22.55 27.5599Z" fill="white"/>
<path d="M32.0001 22.3301V17.0901C32.0001 13.9601 30.2101 12.6001 27.5101 12.6001H18.5801C17.8201 12.6001 17.1401 12.7101 16.5401 12.9401C16.0701 13.1101 15.6501 13.3601 15.3101 13.6901C15.1301 13.8601 15.2701 14.1401 15.5301 14.1401H26.4001C28.6501 14.1401 30.4701 15.9601 30.4701 18.2101V25.3801C30.4701 25.6301 30.7401 25.7701 30.9201 25.5901C31.6101 24.8601 32.0001 23.7901 32.0001 22.3301Z" fill="white"/>
<defs>
<linearGradient id="paint0_linear_284_2753" x1="-0.40367" y1="16.6222" x2="37.3" y2="20.6676" gradientUnits="userSpaceOnUse">
<stop stop-color="#D9303C"/>
<stop offset="0.987116" stop-color="#DE6C75"/>
</linearGradient>
</defs>
</svg>
