<svg width="44" height="44" viewBox="0 0 44 44" fill="none" xmlns="http://www.w3.org/2000/svg">
<rect x="0.5" y="0.5" width="42.9844" height="42.9844" rx="6.5" fill="white" stroke="#CCCCCC"/>
<path d="M17.0151 34.6804L17.4868 31.6837L16.4359 31.6594H11.4177L14.9051 9.54693C14.9159 9.48018 14.9511 9.41793 15.0025 9.37373C15.054 9.32953 15.1198 9.30518 15.1884 9.30518H23.6498C26.4588 9.30518 28.3974 9.88972 29.4095 11.0435C29.884 11.5847 30.1862 12.1503 30.3323 12.7727C30.4857 13.4258 30.4884 14.2061 30.3386 15.1578L30.3278 15.2273V15.8371L30.8023 16.1059C31.2019 16.3179 31.5194 16.5605 31.763 16.8384C32.1689 17.3011 32.4314 17.8893 32.5424 18.5866C32.6569 19.3037 32.6191 20.1571 32.4314 21.1232C32.2149 22.2345 31.8649 23.2025 31.3922 23.9945C30.9574 24.7242 30.4036 25.3295 29.746 25.7986C29.1181 26.2442 28.3721 26.5825 27.5287 26.799C26.7114 27.0119 25.7796 27.1192 24.7575 27.1192H24.099C23.6281 27.1192 23.1708 27.2888 22.8118 27.5928C22.4518 27.9031 22.2137 28.3271 22.1406 28.7908L22.091 29.0605L21.2575 34.3421L21.2196 34.5361C21.2097 34.5974 21.1925 34.6281 21.1673 34.6488C21.1447 34.6678 21.1123 34.6804 21.0807 34.6804H17.0151Z" fill="#253B80"/>
<path d="M31.2518 15.2974C31.2265 15.4588 31.1977 15.6239 31.1652 15.7935C30.0493 21.5225 26.2318 23.5017 21.3561 23.5017H18.8736C18.2773 23.5017 17.7749 23.9347 17.682 24.5228L16.411 32.5837L16.051 34.8687C15.9906 35.2547 16.2883 35.6029 16.678 35.6029H21.081C21.6024 35.6029 22.0453 35.2241 22.1274 34.7099L22.1707 34.4862L22.9997 29.2253L23.0529 28.9367C23.1341 28.4207 23.5779 28.0418 24.0993 28.0418H24.7578C29.0237 28.0418 32.3631 26.3098 33.3392 21.2979C33.7469 19.2042 33.5358 17.456 32.457 16.2265C32.1304 15.8557 31.7254 15.5481 31.2518 15.2974Z" fill="#179BD7"/>
<path d="M30.0847 14.8322C29.9142 14.7825 29.7383 14.7374 29.5579 14.6968C29.3766 14.6572 29.1907 14.622 28.9995 14.5913C28.3302 14.4831 27.5968 14.4316 26.8111 14.4316H20.1791C20.0158 14.4316 19.8606 14.4686 19.7217 14.5354C19.4159 14.6824 19.1886 14.972 19.1336 15.3265L17.7227 24.2624L17.6821 24.5231C17.775 23.9349 18.2775 23.5019 18.8738 23.5019H21.3563C26.2319 23.5019 30.0495 21.5219 31.1654 15.7938C31.1987 15.6242 31.2267 15.4591 31.252 15.2976C30.9696 15.1479 30.6638 15.0198 30.3346 14.9106C30.2534 14.8836 30.1695 14.8574 30.0847 14.8322Z" fill="#222D65"/>
<path d="M19.1334 15.3264C19.1884 14.9719 19.4158 14.6823 19.7216 14.5362C19.8614 14.4694 20.0156 14.4324 20.1789 14.4324H26.8109C27.5966 14.4324 28.33 14.4838 28.9994 14.5921C29.1906 14.6228 29.3764 14.6579 29.5577 14.6976C29.7382 14.7382 29.9141 14.7833 30.0845 14.8329C30.1693 14.8582 30.2532 14.8844 30.3353 14.9105C30.6646 15.0197 30.9704 15.1487 31.2527 15.2975C31.5847 13.1804 31.25 11.7388 30.1053 10.4336C28.8433 8.99656 26.5656 8.38135 23.651 8.38135H15.1896C14.5942 8.38135 14.0863 8.81434 13.9943 9.40339L10.4699 31.7431C10.4005 32.1852 10.7415 32.5839 11.1871 32.5839H16.411L17.7226 24.2623L19.1334 15.3264Z" fill="#253B80"/>
</svg>
