<svg width="44" height="44" viewBox="0 0 44 44" fill="none" xmlns="http://www.w3.org/2000/svg">
<rect width="44" height="44" rx="11" fill="url(#paint0_linear_284_2773)"/>
<path d="M22.0049 12.4023C22.2575 12.4023 22.4961 12.4299 22.6895 12.4766L22.8672 12.5293L28.3613 14.5859V14.5869C28.7736 14.744 29.1761 15.0796 29.4756 15.5146C29.775 15.9497 29.9434 16.4439 29.9395 16.8857V24.9902C29.9394 25.2967 29.8361 25.6871 29.6465 26.0664C29.4805 26.3983 29.2679 26.684 29.0518 26.875L28.959 26.9502L23.4609 31.0596L23.459 31.0605C23.0757 31.3489 22.5469 31.5078 21.9951 31.5078C21.4432 31.5078 20.9136 31.349 20.5303 31.0605L20.5293 31.0596L15.0293 26.9492L15.0264 26.9473C14.783 26.7674 14.5336 26.4511 14.3438 26.0703C14.1541 25.6898 14.0499 25.2971 14.0498 24.9902V16.8896C14.0499 16.4461 14.2217 15.9508 14.5234 15.5156C14.825 15.0807 15.2286 14.7444 15.6455 14.5869L21.1426 12.5293C21.3555 12.4509 21.6679 12.4023 22.0049 12.4023ZM25.8438 18.2959C25.3585 17.8107 24.5614 17.8108 24.0762 18.2959L20.6592 21.7119L19.9336 20.9863C19.4483 20.5011 18.6513 20.5011 18.166 20.9863C17.6818 21.4707 17.6816 22.2645 18.1641 22.75V22.751L19.7637 24.3711L19.7666 24.373C20.0152 24.6217 20.3341 24.7401 20.6494 24.7402C20.9649 24.7402 21.2845 24.6218 21.5332 24.373L25.833 20.0732L25.832 20.0723C26.3284 19.586 26.328 18.7802 25.8438 18.2959Z" fill="white" stroke="white"/>
<defs>
<linearGradient id="paint0_linear_284_2773" x1="-0.40367" y1="16.6222" x2="37.3" y2="20.6676" gradientUnits="userSpaceOnUse">
<stop stop-color="#D9303C"/>
<stop offset="0.987116" stop-color="#DE6C75"/>
</linearGradient>
</defs>
</svg>
