<svg width="48" height="48" viewBox="0 0 48 48" fill="none" xmlns="http://www.w3.org/2000/svg">
<rect width="48" height="48" rx="24" fill="url(#paint0_linear_328_4841)"/>
<path fill-rule="evenodd" clip-rule="evenodd" d="M27 29.8379L25.144 24.2709L30.712 18.7019L27 29.8379ZM29.298 17.2879L23.73 22.8559L18.162 20.9999L29.298 17.2879ZM33.99 14.9479C33.985 14.8549 33.968 14.7649 33.937 14.6779C33.927 14.6469 33.916 14.6169 33.902 14.5869C33.854 14.4799 33.793 14.3789 33.707 14.2929C33.621 14.2069 33.52 14.1459 33.412 14.0979C33.383 14.0839 33.354 14.0729 33.323 14.0629C33.234 14.0319 33.143 14.0139 33.048 14.0089C33.026 14.0079 33.006 14.0029 32.983 14.0029C32.883 14.0049 32.782 14.0189 32.684 14.0509L14.684 20.0509C14.275 20.1879 14 20.5689 14 20.9999C14 21.4309 14.275 21.8129 14.684 21.9489L23.209 24.7909L26.052 33.3169C26.188 33.7249 26.569 33.9999 27 33.9999C27.431 33.9999 27.812 33.7249 27.948 33.3169L33.948 15.3169C33.98 15.2179 33.995 15.1179 33.996 15.0179C33.997 14.9939 33.991 14.9719 33.99 14.9479Z" fill="white"/>
<mask id="mask0_328_4841" style="mask-type:luminance" maskUnits="userSpaceOnUse" x="14" y="14" width="20" height="20">
<path fill-rule="evenodd" clip-rule="evenodd" d="M27 29.8379L25.144 24.2709L30.712 18.7019L27 29.8379ZM29.298 17.2879L23.73 22.8559L18.162 20.9999L29.298 17.2879ZM33.99 14.9479C33.985 14.8549 33.968 14.7649 33.937 14.6779C33.927 14.6469 33.916 14.6169 33.902 14.5869C33.854 14.4799 33.793 14.3789 33.707 14.2929C33.621 14.2069 33.52 14.1459 33.412 14.0979C33.383 14.0839 33.354 14.0729 33.323 14.0629C33.234 14.0319 33.143 14.0139 33.048 14.0089C33.026 14.0079 33.006 14.0029 32.983 14.0029C32.883 14.0049 32.782 14.0189 32.684 14.0509L14.684 20.0509C14.275 20.1879 14 20.5689 14 20.9999C14 21.4309 14.275 21.8129 14.684 21.9489L23.209 24.7909L26.052 33.3169C26.188 33.7249 26.569 33.9999 27 33.9999C27.431 33.9999 27.812 33.7249 27.948 33.3169L33.948 15.3169C33.98 15.2179 33.995 15.1179 33.996 15.0179C33.997 14.9939 33.991 14.9719 33.99 14.9479Z" fill="white"/>
</mask>
<g mask="url(#mask0_328_4841)">
<rect x="12" y="12" width="24" height="24" fill="white"/>
</g>
<defs>
<linearGradient id="paint0_linear_328_4841" x1="-0.440367" y1="18.1333" x2="40.6909" y2="22.5464" gradientUnits="userSpaceOnUse">
<stop stop-color="#D9303C"/>
<stop offset="0.987116" stop-color="#DE6C75"/>
</linearGradient>
</defs>
</svg>
