<svg width="45" height="45" viewBox="0 0 45 45" fill="none" xmlns="http://www.w3.org/2000/svg">
<rect width="45" height="45" rx="22.5" fill="#FCEBEC"/>
<path d="M34.3156 10.3867H22.9006C22.2984 10.3867 21.8086 10.8766 21.8086 11.4787V14.7173C21.8086 15.3195 22.2984 15.8093 22.9006 15.8093H24.0675V15.948C24.0675 17.3132 24.6768 18.5914 25.7374 19.4537C26.5379 20.1035 26.9964 21.1024 26.9964 22.1933V24.8206C26.9964 26.1242 26.8699 27.4075 26.6209 28.6351C26.5946 28.7666 26.6796 28.8962 26.8112 28.9225C26.9438 28.9498 27.0723 28.8638 27.0986 28.7322C27.3547 27.4722 27.4842 26.1566 27.4842 24.8206V22.1933C27.4842 21.5983 27.3567 21.0032 27.1158 20.4718C26.8679 19.9253 26.4974 19.4426 26.0451 19.0752C25.0978 18.306 24.5553 17.1665 24.5553 15.949V15.8103H32.6103V15.949C32.6103 17.1533 32.0769 18.2848 31.1468 19.054C31.1327 19.0651 31.1195 19.0772 31.1063 19.0884C30.3939 19.6622 29.5002 19.9769 28.5823 19.9769C28.4477 19.9769 28.3384 20.0863 28.3384 20.2209C28.3384 20.3555 28.4477 20.4648 28.5823 20.4648C29.1166 20.4648 29.6399 20.3727 30.1368 20.1895C30.1712 20.1763 30.2066 20.1632 30.241 20.15C30.1884 20.2462 30.1388 20.3453 30.0933 20.4465C29.8565 20.9748 29.731 21.5649 29.731 22.1549V24.9836C29.731 27.0401 30.0386 29.0298 30.6448 30.898C30.9161 31.734 31.0659 32.5406 31.0659 33.1691C31.0659 34.8258 29.9981 36.0757 28.5823 36.0757C28.4295 36.0757 28.2766 36.0605 28.1289 36.0302C27.9973 36.0038 27.8678 36.0889 27.8415 36.2204C27.8151 36.352 27.9001 36.4815 28.0317 36.5078C28.2119 36.5443 28.3961 36.5625 28.5823 36.5625C29.3909 36.5625 30.1408 36.2184 30.6934 35.593C31.248 34.9655 31.5537 34.1042 31.5537 33.1691C31.5537 32.491 31.3958 31.6308 31.1094 30.7472C30.5183 28.9286 30.2188 26.9885 30.2188 24.9836V22.1549C30.2188 21.0912 30.655 20.1136 31.4181 19.4618C31.4312 19.4507 31.4444 19.4406 31.4575 19.4294C31.4636 19.4244 31.4687 19.4193 31.4747 19.4142C32.506 18.553 33.0971 17.291 33.0971 15.948V15.8093H34.3146C34.9167 15.8093 35.4066 15.3195 35.4066 14.7173V11.4777C35.4066 10.8766 34.9167 10.3867 34.3156 10.3867ZM34.9187 14.7173C34.9187 15.0503 34.6475 15.3215 34.3146 15.3215H32.8542H24.3114H22.9006C22.5676 15.3215 22.2964 15.0503 22.2964 14.7173V11.4777C22.2964 11.1447 22.5676 10.8735 22.9006 10.8735H34.3156C34.6485 10.8735 34.9198 11.1447 34.9198 11.4777V14.7173H34.9187Z" fill="#D9303C" stroke="#D9303C" stroke-width="0.28125"/>
<path d="M23.7136 12.4868H25.6517C25.7863 12.4868 25.8956 12.3775 25.8956 12.2429C25.8956 12.1083 25.7863 11.999 25.6517 11.999H23.7136C23.579 11.999 23.4697 12.1083 23.4697 12.2429C23.4697 12.3775 23.579 12.4868 23.7136 12.4868Z" fill="#D9303C" stroke="#D9303C" stroke-width="0.28125"/>
<path d="M33.4453 11.999H26.9509C26.8163 11.999 26.707 12.1083 26.707 12.2429C26.707 12.3775 26.8163 12.4868 26.9509 12.4868H33.4453C33.5799 12.4868 33.6892 12.3775 33.6892 12.2429C33.6892 12.1083 33.5799 11.999 33.4453 11.999Z" fill="#D9303C" stroke="#D9303C" stroke-width="0.28125"/>
<path d="M33.4466 13.7026H23.7136C23.579 13.7026 23.4697 13.8119 23.4697 13.9465C23.4697 14.0811 23.579 14.1904 23.7136 14.1904H33.4466C33.5812 14.1904 33.6905 14.0811 33.6905 13.9465C33.6905 13.8119 33.5812 13.7026 33.4466 13.7026Z" fill="#D9303C" stroke="#D9303C" stroke-width="0.28125"/>
<path d="M13.8672 36.0737H10.8512C10.4252 36.0737 10.078 35.7265 10.078 35.3005V20.4627H22.7945V24.5352C22.7945 24.6698 22.9038 24.7791 23.0384 24.7791C23.173 24.7791 23.2823 24.6698 23.2823 24.5352V16.8315C23.2823 16.6969 23.173 16.5876 23.0384 16.5876C22.9038 16.5876 22.7945 16.6969 22.7945 16.8315V19.8201L18.4973 17.6249V15.1059C18.4973 15.0715 18.5257 15.0422 18.5611 15.0422H19.4335C19.8403 15.0422 20.1702 14.7112 20.1702 14.3054V13.7629C20.1702 13.3561 19.8393 13.0262 19.4335 13.0262H14.9865C14.5139 13.0262 14.1283 13.4107 14.1283 13.8844V17.7514L10.078 19.8211V12.4483C10.078 10.5061 11.6579 8.92531 13.601 8.92531H19.2726C20.1885 8.92531 21.0568 9.27548 21.7167 9.91105C21.8138 10.0042 21.9677 10.0021 22.0618 9.90498C22.1549 9.80782 22.1529 9.65399 22.0557 9.55987C21.3048 8.83625 20.317 8.4375 19.2736 8.4375H13.602C13.0606 8.4375 12.5353 8.54377 12.0414 8.75225C11.5637 8.95466 11.1346 9.2431 10.7672 9.61148C10.3999 9.97987 10.1094 10.409 9.90801 10.8857C9.69852 11.3806 9.59326 11.9058 9.59326 12.4462V35.2984C9.59326 35.9937 10.159 36.5595 10.8543 36.5595H13.8702C14.0048 36.5595 14.1141 36.4502 14.1141 36.3156C14.1141 36.181 14.0018 36.0737 13.8672 36.0737ZM14.5544 18.0824H18.2534H18.3182L22.0253 19.9759H10.8482L14.5544 18.0824ZM14.6161 13.8854C14.6161 13.681 14.7821 13.515 14.9865 13.515H19.4325C19.5701 13.515 19.6824 13.6273 19.6824 13.765V14.3074C19.6824 14.4451 19.5701 14.5574 19.4325 14.5574H18.5601C18.2565 14.5574 18.0095 14.8043 18.0095 15.108V17.5956H14.6161V13.8854Z" fill="#D9303C" stroke="#D9303C" stroke-width="0.28125"/>
<path d="M26.1394 32.5576C26.5918 32.1872 26.8812 31.6244 26.8812 30.996C26.8812 29.9667 26.106 29.1146 25.1091 28.9931C25.5493 28.6227 25.8307 28.0681 25.8307 27.4487C25.8307 26.3365 24.9259 25.4307 23.8127 25.4307H20.9516C19.9679 25.4307 19.1319 24.6625 19.0489 23.6818L19.0074 23.19C19.0003 23.11 18.9548 23.0382 18.886 22.9987C18.8161 22.9592 18.7321 22.9562 18.6593 22.9906C18.632 23.0038 17.9741 23.3236 17.3294 24.0006C16.9489 24.4004 16.6514 24.8427 16.4449 25.3153C16.1858 25.9084 16.0704 26.549 16.1018 27.219C16.1281 27.7746 16.3447 28.3343 16.6959 28.7543C16.7657 28.8383 16.8396 28.9142 16.9175 28.984C15.8751 29.0609 15.0503 29.9343 15.0503 30.996C15.0503 31.6244 15.3397 32.1872 15.7921 32.5576C14.8489 32.7266 14.1313 33.5524 14.1313 34.5432C14.1313 35.6555 15.0361 36.5613 16.1494 36.5613H25.7852C26.8974 36.5613 27.8032 35.6565 27.8032 34.5432C27.8002 33.5534 27.0826 32.7266 26.1394 32.5576ZM16.5886 27.1967C16.538 26.1209 16.9013 25.1635 17.6705 24.3508C17.9923 24.0108 18.3223 23.7669 18.554 23.6171L18.5631 23.7254C18.6137 24.3255 18.886 24.8811 19.3293 25.288C19.7725 25.6958 20.3484 25.9205 20.9516 25.9205H23.8127C24.6567 25.9205 25.3429 26.6067 25.3429 27.4507C25.3429 28.2948 24.6567 28.981 23.8127 28.981H18.1188C17.2535 28.9789 16.6291 28.057 16.5886 27.1967ZM25.7831 36.0734H16.1474C15.3033 36.0734 14.6171 35.3873 14.6171 34.5432C14.6171 33.6992 15.3033 33.013 16.1474 33.013H22.4859C22.6205 33.013 22.7298 32.9037 22.7298 32.7691C22.7298 32.6345 22.6205 32.5252 22.4859 32.5252H17.0673C16.2233 32.5252 15.5371 31.839 15.5371 30.995C15.5371 30.1509 16.2233 29.4647 17.0673 29.4647H24.8632C25.7072 29.4647 26.3934 30.1509 26.3934 30.995C26.3934 31.839 25.7072 32.5252 24.8632 32.5252C24.7286 32.5252 24.6193 32.6345 24.6193 32.7691C24.6193 32.9037 24.7286 33.013 24.8632 33.013H25.7831C26.6272 33.013 27.3134 33.6992 27.3134 34.5432C27.3134 35.3873 26.6262 36.0734 25.7831 36.0734Z" fill="#D9303C" stroke="#D9303C" stroke-width="0.28125"/>
</svg>
