<svg width="32" height="20" viewBox="0 0 32 20" fill="none" xmlns="http://www.w3.org/2000/svg">
<path d="M0.737305 17.7139C0.737305 18.9765 1.76083 20.0001 3.0235 20.0001H28.9774C30.2401 20.0001 31.2636 18.9766 31.2636 17.7139V15.7896H0.737305V17.7139Z" fill="#C8414B"/>
<path d="M28.9774 0H3.0235C1.76083 0 0.737305 1.02353 0.737305 2.2862V4.21055H31.2636V2.2862C31.2636 1.02353 30.2401 0 28.9774 0Z" fill="#C8414B"/>
<path d="M31.2636 4.21094H0.737305V15.7901H31.2636V4.21094Z" fill="#FFD250"/>
<path d="M13.6321 9.99982L14.0784 7.9917C14.1195 7.80676 13.9788 7.63135 13.7893 7.63135H13.475C13.2855 7.63135 13.1448 7.80681 13.1859 7.9917L13.6321 9.99982Z" fill="#C8414B"/>
<path d="M14.1581 8.94727H13.1055V13.4207H14.1581V8.94727Z" fill="#F5F5F5"/>
<path d="M14.4217 8.42139H12.8428V8.94773H14.4217V8.42139Z" fill="#FAB446"/>
<path d="M14.4217 10H11.79V10.5263H14.4217V10Z" fill="#C8414B"/>
<path d="M14.4217 12.1054L12.8428 11.5791V11.0527L14.4217 11.5791V12.1054Z" fill="#C8414B"/>
<path d="M5.7376 9.99982L6.18387 7.9917C6.225 7.80676 6.08424 7.63135 5.89476 7.63135H5.58043C5.39102 7.63135 5.25031 7.80681 5.29133 7.9917L5.7376 9.99982Z" fill="#C8414B"/>
<path d="M7.57908 8.4209C7.28842 8.4209 7.05273 8.65658 7.05273 8.94724V12.3683C7.05273 13.0077 7.64955 14.2104 9.68432 14.2104C11.7191 14.2104 12.3159 13.0078 12.3159 12.3683V8.94724C12.3159 8.65658 12.0802 8.4209 11.7896 8.4209H7.57908Z" fill="#F5F5F5"/>
<path d="M9.68432 11.0525H7.05273V8.94724C7.05273 8.65658 7.28842 8.4209 7.57908 8.4209H9.68432V11.0525Z" fill="#C8414B"/>
<path d="M9.68457 11.0527H12.3162V12.3685C12.3162 13.0953 11.7271 13.6843 11.0004 13.6843C10.2736 13.6843 9.68457 13.0953 9.68457 12.3685V11.0527Z" fill="#C8414B"/>
<path d="M7.05273 11.0527H9.68432V12.3685C9.68432 13.0953 9.09526 13.6843 8.36853 13.6843C7.6418 13.6843 7.05273 13.0953 7.05273 12.3685V11.0527Z" fill="#FAB446"/>
<path d="M9.15818 13.4152V11.0527H8.63184V13.6578C8.82763 13.6181 9.00453 13.5314 9.15818 13.4152Z" fill="#C8414B"/>
<path d="M8.10544 13.6578V11.0527H7.5791V13.4152C7.73281 13.5314 7.9097 13.6181 8.10544 13.6578Z" fill="#C8414B"/>
<path d="M9.15806 10H7.5791V10.5263H9.15806V10Z" fill="#FFB441"/>
<path d="M9.15806 8.94727H7.5791V9.47361H9.15806V8.94727Z" fill="#FAB446"/>
<path d="M8.8954 9.26025H7.84277V10.2137H8.8954V9.26025Z" fill="#FAB446"/>
<path d="M6.26356 8.94727H5.21094V13.4207H6.26356V8.94727Z" fill="#F5F5F5"/>
<path d="M6.5272 13.1582H4.94824V13.6845H6.5272V13.1582Z" fill="#FAB446"/>
<path d="M6.5272 8.42139H4.94824V8.94773H6.5272V8.42139Z" fill="#FAB446"/>
<path d="M6.78981 13.6841H4.68457V14.2104H6.78981V13.6841Z" fill="#5064AA"/>
<path d="M14.6844 13.1582H13.1055V13.6845H14.6844V13.1582Z" fill="#FAB446"/>
<path d="M14.6843 13.6841H12.5791V14.2104H14.6843V13.6841Z" fill="#5064AA"/>
<path d="M11.2634 7.89453H8.10547V8.42087H11.2634V7.89453Z" fill="#FAB446"/>
<path d="M9.94822 6.31592H9.42188V7.89488H9.94822V6.31592Z" fill="#FFB441"/>
<path d="M9.15859 7.10527C8.72323 7.10527 8.36914 6.75112 8.36914 6.31582C8.36914 5.88046 8.72329 5.52637 9.15859 5.52637C9.59395 5.52637 9.94804 5.88052 9.94804 6.31582C9.9481 6.75112 9.59395 7.10527 9.15859 7.10527ZM9.15859 6.05265C9.01341 6.05265 8.89542 6.17058 8.89542 6.31582C8.89542 6.461 9.01335 6.57899 9.15859 6.57899C9.30383 6.57899 9.42176 6.46106 9.42176 6.31582C9.42176 6.17064 9.30383 6.05265 9.15859 6.05265Z" fill="#F5F5F5"/>
<path d="M10.2113 7.10527C9.77597 7.10527 9.42188 6.75112 9.42188 6.31582C9.42188 5.88046 9.77603 5.52637 10.2113 5.52637C10.6467 5.52637 11.0008 5.88052 11.0008 6.31582C11.0008 6.75112 10.6466 7.10527 10.2113 7.10527ZM10.2113 6.05265C10.0661 6.05265 9.94816 6.17058 9.94816 6.31582C9.94816 6.461 10.0661 6.57899 10.2113 6.57899C10.3565 6.57899 10.4745 6.46106 10.4745 6.31582C10.4744 6.17064 10.3565 6.05265 10.2113 6.05265Z" fill="#F5F5F5"/>
<path d="M11.2641 7.63164C10.8287 7.63164 10.4746 7.27748 10.4746 6.84219C10.4746 6.40683 10.8288 6.05273 11.2641 6.05273C11.6994 6.05273 12.0535 6.40689 12.0535 6.84219C12.0535 7.27748 11.6994 7.63164 11.2641 7.63164ZM11.2641 6.57902C11.1189 6.57902 11.0009 6.69695 11.0009 6.84219C11.0009 6.98736 11.1188 7.10536 11.2641 7.10536C11.4092 7.10536 11.5272 6.98742 11.5272 6.84219C11.5272 6.69695 11.4092 6.57902 11.2641 6.57902Z" fill="#F5F5F5"/>
<path d="M8.10586 7.63164C7.6705 7.63164 7.31641 7.27748 7.31641 6.84219C7.31641 6.40683 7.67056 6.05273 8.10586 6.05273C8.54122 6.05273 8.89531 6.40689 8.89531 6.84219C8.89537 7.27748 8.54122 7.63164 8.10586 7.63164ZM8.10586 6.57902C7.96068 6.57902 7.84269 6.69695 7.84269 6.84219C7.84269 6.98736 7.96062 7.10536 8.10586 7.10536C8.2511 7.10536 8.36903 6.98736 8.36903 6.84213C8.36903 6.69695 8.2511 6.57902 8.10586 6.57902Z" fill="#F5F5F5"/>
<path d="M11.2636 12.1054V12.3686C11.2636 12.5137 11.1456 12.6317 11.0004 12.6317C10.8553 12.6317 10.7373 12.5137 10.7373 12.3686V12.1054H11.2636ZM11.7899 11.5791H10.2109V12.3686C10.2109 12.8039 10.5651 13.158 11.0004 13.158C11.4357 13.158 11.7898 12.8039 11.7898 12.3686L11.7899 11.5791Z" fill="#FAB446"/>
<path d="M11 10.5263C10.7093 10.5263 10.4736 10.2906 10.4736 9.99995V9.47361C10.4736 9.18295 10.7093 8.94727 11 8.94727C11.2906 8.94727 11.5263 9.18295 11.5263 9.47361V9.99995C11.5263 10.2906 11.2906 10.5263 11 10.5263Z" fill="#FFA0D2"/>
<path d="M9.68496 11.8416C10.121 11.8416 10.4744 11.4881 10.4744 11.0521C10.4744 10.6161 10.121 10.2627 9.68496 10.2627C9.24896 10.2627 8.89551 10.6161 8.89551 11.0521C8.89551 11.4881 9.24896 11.8416 9.68496 11.8416Z" fill="#5064AA"/>
<path d="M9.94822 5.26318H9.42188V6.84215H9.94822V5.26318Z" fill="#FAB446"/>
<path d="M8.10544 7.89488L7.5791 7.36854L7.88741 7.06024C8.36396 6.58368 9.01038 6.31592 9.68441 6.31592C10.3584 6.31592 11.0048 6.58368 11.4814 7.06024L11.7897 7.36854L11.2634 7.89488H8.10544Z" fill="#C8414B"/>
<path d="M9.68505 7.63132C9.83039 7.63132 9.94822 7.5135 9.94822 7.36815C9.94822 7.22281 9.83039 7.10498 9.68505 7.10498C9.5397 7.10498 9.42188 7.22281 9.42188 7.36815C9.42188 7.5135 9.5397 7.63132 9.68505 7.63132Z" fill="#FFD250"/>
<path d="M8.63231 7.63132C8.77766 7.63132 8.89548 7.5135 8.89548 7.36815C8.89548 7.22281 8.77766 7.10498 8.63231 7.10498C8.48697 7.10498 8.36914 7.22281 8.36914 7.36815C8.36914 7.5135 8.48697 7.63132 8.63231 7.63132Z" fill="#FFD250"/>
<path d="M10.7368 7.63132C10.8821 7.63132 11 7.5135 11 7.36815C11 7.22281 10.8821 7.10498 10.7368 7.10498C10.5915 7.10498 10.4736 7.22281 10.4736 7.36815C10.4736 7.5135 10.5915 7.63132 10.7368 7.63132Z" fill="#FFD250"/>
<path d="M7.57995 10H4.94824V10.5263H7.57995V10Z" fill="#C8414B"/>
<path d="M4.94824 12.1054L6.52715 11.5791V11.0527L4.94824 11.5791V12.1054Z" fill="#C8414B"/>
</svg>
