<svg width="44" height="45" viewBox="0 0 44 45" fill="none" xmlns="http://www.w3.org/2000/svg">
<rect x="0.5" y="1.45312" width="42.9844" height="42.9844" rx="6.5" fill="white"/>
<rect x="0.5" y="1.45312" width="42.9844" height="42.9844" rx="6.5" stroke="#CCCCCC"/>
<path d="M40.9922 23.2091C40.9922 20.5068 39.6833 18.3746 37.1816 18.3746C34.6694 18.3746 33.1494 20.5068 33.1494 23.188C33.1494 26.3652 34.9439 27.9696 37.5194 27.9696C38.7755 27.9696 39.7255 27.6846 40.4433 27.2835V25.1724C39.7255 25.5313 38.9022 25.753 37.8572 25.753C36.8333 25.753 35.9255 25.3941 35.8094 24.1485H40.9711C40.9711 24.0113 40.9922 23.4624 40.9922 23.2091ZM35.7777 22.2063C35.7777 21.0135 36.5061 20.5174 37.1711 20.5174C37.815 20.5174 38.5011 21.0135 38.5011 22.2063H35.7777ZM29.075 18.3746C28.0405 18.3746 27.3755 18.8602 27.0061 19.198L26.8689 18.5435H24.5466V30.8513L27.1855 30.2918L27.1961 27.3046C27.5761 27.5791 28.1355 27.9696 29.0644 27.9696C30.9539 27.9696 32.6744 26.4496 32.6744 23.1035C32.6639 20.0424 30.9222 18.3746 29.075 18.3746ZM28.4416 25.6474C27.8189 25.6474 27.4494 25.4257 27.1961 25.1513L27.1855 21.2352C27.46 20.9291 27.84 20.718 28.4416 20.718C29.4022 20.718 30.0672 21.7946 30.0672 23.1774C30.0672 24.5918 29.4127 25.6474 28.4416 25.6474ZM20.9155 17.7518L23.565 17.1818V15.0391L20.9155 15.5985V17.7518ZM20.9155 18.5541H23.565V27.7902H20.9155V18.5541ZM18.0761 19.3352L17.9072 18.5541H15.6272V27.7902H18.2661V21.5307C18.8889 20.718 19.9444 20.8657 20.2716 20.9818V18.5541C19.9339 18.4274 18.6989 18.1952 18.0761 19.3352ZM12.7983 16.2635L10.2227 16.8124L10.2122 25.2674C10.2122 26.8296 11.3839 27.9802 12.9461 27.9802C13.8116 27.9802 14.445 27.8218 14.7933 27.6318V25.4891C14.4555 25.6263 12.7877 26.1118 12.7877 24.5496V20.8024H14.7933V18.5541H12.7877L12.7983 16.2635ZM5.66274 21.2352C5.66274 20.8235 6.00052 20.6652 6.55997 20.6652C7.36219 20.6652 8.37552 20.908 9.17774 21.3407V18.8602C8.30163 18.5118 7.43608 18.3746 6.55997 18.3746C4.41719 18.3746 2.99219 19.4935 2.99219 21.3618C2.99219 24.2752 7.0033 23.8107 7.0033 25.0668C7.0033 25.5524 6.58108 25.7107 5.98997 25.7107C5.11385 25.7107 3.99497 25.3518 3.1083 24.8663V27.3785C4.08997 27.8007 5.08219 27.9802 5.98997 27.9802C8.18552 27.9802 9.69497 26.893 9.69497 25.0035C9.68441 21.858 5.66274 22.4174 5.66274 21.2352Z" fill="#635BFF"/>
</svg>
