<svg width="44" height="44" viewBox="0 0 44 44" fill="none" xmlns="http://www.w3.org/2000/svg">
<rect width="44" height="44" rx="11" fill="url(#paint0_linear_284_2744)"/>
<path fill-rule="evenodd" clip-rule="evenodd" d="M22.309 12.0814C20.379 12.0171 18.4291 12.5437 16.7456 13.6674C14.8549 14.9309 13.5335 16.7966 12.9249 18.8823C12.7568 18.8618 12.5555 18.8708 12.3165 18.9384C11.4242 19.1916 10.7531 19.9227 10.4514 20.5667C10.06 21.4059 9.89497 22.5157 10.0691 23.6614C10.242 24.8036 10.7245 25.745 11.328 26.3295C11.9333 26.9143 12.6168 27.1044 13.2957 26.9617C14.3066 26.746 14.8078 26.5845 14.6663 25.6428L13.981 21.0775C14.1192 18.6068 15.3983 16.2809 17.5377 14.8506C20.4014 12.9378 24.1558 13.0603 26.8872 15.1572C28.7874 16.614 29.8906 18.7969 30.0179 21.0884L29.5387 24.2819C28.4699 27.2067 25.8202 29.2327 22.7541 29.5203H20.7125C20.1856 29.5203 19.7614 29.9445 19.7614 30.4708V30.9723C19.7614 31.4989 20.1856 31.9231 20.7125 31.9231H23.2867C23.8133 31.9231 24.2357 31.4989 24.2357 30.9723V30.7101C26.5478 30.1458 28.5659 28.7248 29.88 26.7432L30.7047 26.962C31.3758 27.1361 32.0674 26.9143 32.6724 26.3298C33.2759 25.745 33.7581 24.8039 33.9313 23.6618C34.106 22.516 33.9361 21.408 33.5493 20.567C33.1609 19.726 32.5825 19.1919 31.9147 19.0003C31.635 18.9197 31.3314 18.8901 31.071 18.8823C30.5206 16.9964 29.3875 15.2812 27.7545 14.0289C26.1488 12.7969 24.239 12.1448 22.309 12.0814Z" fill="white"/>
<path fill-rule="evenodd" clip-rule="evenodd" d="M25.3207 20.2945C26.0011 20.2945 26.5527 20.8461 26.5542 21.5283C26.5527 22.2088 26.0011 22.7619 25.3207 22.7619C24.6384 22.7619 24.0853 22.2088 24.0853 21.5283C24.0853 20.8464 24.6387 20.2945 25.3207 20.2945ZM21.9984 20.2945C22.6803 20.2945 23.2319 20.8461 23.2319 21.5283C23.2319 22.2088 22.6803 22.7619 21.9984 22.7619C21.3158 22.7619 20.7642 22.2088 20.7642 21.5283C20.7642 20.8464 21.3158 20.2945 21.9984 20.2945ZM18.6773 20.2945C19.3577 20.2945 19.9109 20.8461 19.9109 21.5283C19.9109 22.2088 19.3577 22.7619 18.6773 22.7619C17.9953 22.7619 17.4434 22.2088 17.4434 21.5283C17.4434 20.8464 17.9953 20.2945 18.6773 20.2945ZM21.9984 14.9951C18.3804 14.9951 15.4648 17.8147 15.4648 21.5283C15.4648 23.312 16.1393 24.8884 17.2379 26.045L16.8481 27.7927C16.7195 28.3679 17.1184 28.7547 17.6353 28.4668L19.3421 27.5148C20.1532 27.867 21.0503 28.0616 21.9984 28.0616C25.6176 28.0616 28.5313 25.2438 28.5313 21.5283C28.5313 17.8147 25.6176 14.9951 21.9984 14.9951Z" fill="white"/>
<defs>
<linearGradient id="paint0_linear_284_2744" x1="-0.40367" y1="16.6222" x2="37.3" y2="20.6676" gradientUnits="userSpaceOnUse">
<stop stop-color="#D9303C"/>
<stop offset="0.987116" stop-color="#DE6C75"/>
</linearGradient>
</defs>
</svg>
