<svg width="44" height="44" viewBox="0 0 44 44" fill="none" xmlns="http://www.w3.org/2000/svg">
<rect width="44" height="44" rx="11" fill="url(#paint0_linear_284_2779)"/>
<path d="M18 12.5H26C27.6546 12.5 28.7545 12.9699 29.4463 13.7148C30.1443 14.4665 30.5 15.5766 30.5 17V27C30.5 28.4234 30.1443 29.5335 29.4463 30.2852C28.7545 31.0301 27.6546 31.5 26 31.5H18C16.3454 31.5 15.2455 31.0301 14.5537 30.2852C13.8557 29.5335 13.5 28.4234 13.5 27V17C13.5 15.5766 13.8557 14.4665 14.5537 13.7148C15.2455 12.9699 16.3454 12.5 18 12.5ZM18 25.75C17.3139 25.75 16.75 26.3139 16.75 27C16.75 27.6861 17.3139 28.25 18 28.25H26C26.6861 28.25 27.25 27.6861 27.25 27C27.25 26.3139 26.6861 25.75 26 25.75H18ZM18 21.75C17.3139 21.75 16.75 22.3139 16.75 23C16.75 23.6861 17.3139 24.25 18 24.25H22C22.6861 24.25 23.25 23.6861 23.25 23C23.25 22.3139 22.6861 21.75 22 21.75H18ZM24.5 13.25C23.8139 13.25 23.25 13.8139 23.25 14.5V16.5C23.25 18.2961 24.7039 19.75 26.5 19.75H28.5C29.1861 19.75 29.75 19.1861 29.75 18.5C29.75 17.8139 29.1861 17.25 28.5 17.25H26.5C26.0861 17.25 25.75 16.9139 25.75 16.5V14.5C25.75 13.8139 25.1861 13.25 24.5 13.25Z" fill="white" stroke="white"/>
<defs>
<linearGradient id="paint0_linear_284_2779" x1="-0.40367" y1="16.6222" x2="37.3" y2="20.6676" gradientUnits="userSpaceOnUse">
<stop stop-color="#D9303C"/>
<stop offset="0.987116" stop-color="#DE6C75"/>
</linearGradient>
</defs>
</svg>
