<svg width="36" height="35" viewBox="0 0 36 35" fill="none" xmlns="http://www.w3.org/2000/svg">
<path d="M3.78125 18.958C3.78143 15.1325 6.88254 12.0314 10.708 12.0312L11.4375 12.0312C12.0416 12.0312 12.5312 12.5209 12.5312 13.125C12.5312 13.7291 12.0416 14.2187 11.4375 14.2187L10.708 14.2187C8.09067 14.2189 5.96893 16.3407 5.96875 18.958L5.96875 24.792C5.96893 27.4093 8.09067 29.5311 10.708 29.5312L25.292 29.5312C27.9093 29.5311 30.0311 27.4093 30.0312 24.792L30.0312 18.958C30.0311 16.3407 27.9093 14.2189 25.292 14.2187L24.5625 14.2187C23.9584 14.2187 23.4687 13.7291 23.4687 13.125C23.4688 12.5209 23.9584 12.0312 24.5625 12.0312L25.292 12.0312C29.1175 12.0314 32.2186 15.1325 32.2187 18.958L32.2187 24.792C32.2186 28.6175 29.1175 31.7186 25.292 31.7187L10.708 31.7187C6.88254 31.7186 3.78143 28.6175 3.78125 24.792L3.78125 18.958ZM12.8516 9.52344C12.4244 9.0963 12.4244 8.4037 12.8516 7.97656L17.2266 3.60156C17.6537 3.17443 18.3463 3.17443 18.7734 3.60156L23.1484 7.97656C23.5756 8.4037 23.5756 9.0963 23.1484 9.52344C22.7213 9.95057 22.0287 9.95057 21.6016 9.52344L19.0937 7.01562L19.0937 21.875C19.0937 22.4791 18.6041 22.9687 18 22.9687C17.3959 22.9687 16.9062 22.4791 16.9062 21.875L16.9062 7.01562L14.3984 9.52344C13.9713 9.95057 13.2787 9.95057 12.8516 9.52344Z" fill="#D9303C"/>
<path d="M3.78125 18.958L3.23437 18.958L3.23437 18.958L3.78125 18.958ZM10.708 12.0312L10.708 11.4844L10.708 11.4844L10.708 12.0312ZM11.4375 12.0312L11.4375 11.4844L11.4375 12.0312ZM12.5312 13.125L13.0781 13.125L13.0781 13.125L12.5312 13.125ZM11.4375 14.2187L11.4375 14.7656L11.4375 14.2187ZM10.708 14.2187L10.708 13.6719L10.708 13.6719L10.708 14.2187ZM5.96875 18.958L5.42187 18.958L5.42187 18.958L5.96875 18.958ZM5.96875 24.792L5.42187 24.792L5.42187 24.792L5.96875 24.792ZM10.708 29.5312L10.708 30.0781L10.708 30.0781L10.708 29.5312ZM25.292 29.5312L25.292 30.0781L25.292 30.0781L25.292 29.5312ZM30.0312 24.792L30.5781 24.792L30.5781 24.792L30.0312 24.792ZM30.0312 18.958L30.5781 18.958L30.5781 18.958L30.0312 18.958ZM25.292 14.2187L25.292 13.6719L25.292 13.6719L25.292 14.2187ZM23.4687 13.125L22.9219 13.125L22.9219 13.125L23.4687 13.125ZM25.292 12.0312L25.292 11.4844L25.292 11.4844L25.292 12.0312ZM32.2187 18.958L32.7656 18.958L32.7656 18.958L32.2187 18.958ZM32.2187 24.792L32.7656 24.792L32.7656 24.792L32.2187 24.792ZM25.292 31.7187L25.292 32.2656L25.292 32.2656L25.292 31.7187ZM10.708 31.7187L10.708 32.2656L10.708 32.2656L10.708 31.7187ZM3.78125 24.792L3.23437 24.792L3.23437 24.792L3.78125 24.792ZM12.8516 9.52344L13.2383 9.13674L12.8516 9.52344ZM12.8516 7.97656L13.2383 8.36326L12.8516 7.97656ZM17.2266 3.60156L16.8399 3.21486L16.8399 3.21486L17.2266 3.60156ZM18.7734 3.60156L19.1601 3.21486L19.1601 3.21486L18.7734 3.60156ZM23.1484 7.97656L22.7617 8.36326L22.7617 8.36326L23.1484 7.97656ZM23.1484 9.52344L23.5351 9.91014L23.5351 9.91013L23.1484 9.52344ZM21.6016 9.52344L21.2149 9.91014L21.6016 9.52344ZM19.0937 7.01562L19.4804 6.62892C19.324 6.47252 19.0888 6.42573 18.8845 6.51038C18.6801 6.59502 18.5469 6.79443 18.5469 7.01562L19.0937 7.01562ZM19.0937 21.875L19.6406 21.875L19.0937 21.875ZM18 22.9687L18 23.5156L18 22.9687ZM16.9062 21.875L17.4531 21.875L16.9062 21.875ZM16.9062 7.01562L17.4531 7.01562C17.4531 6.79443 17.3199 6.59502 17.1155 6.51038C16.9112 6.42573 16.676 6.47252 16.5196 6.62892L16.9062 7.01562ZM14.3984 9.52344L14.0117 9.13674L14.3984 9.52344ZM3.78125 18.958L4.32812 18.958C4.32829 15.4346 7.18458 12.5783 10.708 12.5781L10.708 12.0312L10.708 11.4844C6.58051 11.4846 3.23457 14.8305 3.23437 18.958L3.78125 18.958ZM10.708 12.0312L10.708 12.5781L11.4375 12.5781L11.4375 12.0312L11.4375 11.4844L10.708 11.4844L10.708 12.0312ZM11.4375 12.0312L11.4375 12.5781C11.7395 12.5781 11.9844 12.823 11.9844 13.125L12.5312 13.125L13.0781 13.125C13.0781 12.2189 12.3436 11.4844 11.4375 11.4844L11.4375 12.0312ZM12.5312 13.125L11.9844 13.125C11.9844 13.427 11.7395 13.6719 11.4375 13.6719L11.4375 14.2187L11.4375 14.7656C12.3436 14.7656 13.0781 14.0311 13.0781 13.125L12.5312 13.125ZM11.4375 14.2187L11.4375 13.6719L10.708 13.6719L10.708 14.2187L10.708 14.7656L11.4375 14.7656L11.4375 14.2187ZM10.708 14.2187L10.708 13.6719C7.78863 13.6721 5.42207 16.0386 5.42187 18.958L5.96875 18.958L6.51562 18.958C6.51578 16.6427 8.39271 14.7658 10.708 14.7656L10.708 14.2187ZM5.96875 18.958L5.42187 18.958L5.42187 24.792L5.96875 24.792L6.51562 24.792L6.51562 18.958L5.96875 18.958ZM5.96875 24.792L5.42187 24.792C5.42207 27.7114 7.78863 30.0779 10.708 30.0781L10.708 29.5312L10.708 28.9844C8.3927 28.9842 6.51578 27.1073 6.51562 24.792L5.96875 24.792ZM10.708 29.5312L10.708 30.0781L25.292 30.0781L25.292 29.5312L25.292 28.9844L10.708 28.9844L10.708 29.5312ZM25.292 29.5312L25.292 30.0781C28.2114 30.0779 30.5779 27.7114 30.5781 24.792L30.0312 24.792L29.4844 24.792C29.4842 27.1073 27.6073 28.9842 25.292 28.9844L25.292 29.5312ZM30.0312 24.792L30.5781 24.792L30.5781 18.958L30.0312 18.958L29.4844 18.958L29.4844 24.792L30.0312 24.792ZM30.0312 18.958L30.5781 18.958C30.5779 16.0386 28.2114 13.6721 25.292 13.6719L25.292 14.2187L25.292 14.7656C27.6073 14.7658 29.4842 16.6427 29.4844 18.958L30.0312 18.958ZM25.292 14.2187L25.292 13.6719L24.5625 13.6719L24.5625 14.2187L24.5625 14.7656L25.292 14.7656L25.292 14.2187ZM24.5625 14.2187L24.5625 13.6719C24.2605 13.6719 24.0156 13.427 24.0156 13.125L23.4687 13.125L22.9219 13.125C22.9219 14.0311 23.6564 14.7656 24.5625 14.7656L24.5625 14.2187ZM23.4687 13.125L24.0156 13.125C24.0156 12.823 24.2605 12.5781 24.5625 12.5781L24.5625 12.0312L24.5625 11.4844C23.6564 11.4844 22.9219 12.2189 22.9219 13.125L23.4687 13.125ZM24.5625 12.0312L24.5625 12.5781L25.292 12.5781L25.292 12.0312L25.292 11.4844L24.5625 11.4844L24.5625 12.0312ZM25.292 12.0312L25.292 12.5781C28.8154 12.5783 31.6717 15.4346 31.6719 18.958L32.2187 18.958L32.7656 18.958C32.7654 14.8305 29.4195 11.4846 25.292 11.4844L25.292 12.0312ZM32.2187 18.958L31.6719 18.958L31.6719 24.792L32.2187 24.792L32.7656 24.792L32.7656 18.958L32.2187 18.958ZM32.2187 24.792L31.6719 24.792C31.6717 28.3154 28.8154 31.1717 25.292 31.1719L25.292 31.7187L25.292 32.2656C29.4195 32.2654 32.7654 28.9195 32.7656 24.792L32.2187 24.792ZM25.292 31.7187L25.292 31.1719L10.708 31.1719L10.708 31.7187L10.708 32.2656L25.292 32.2656L25.292 31.7187ZM10.708 31.7187L10.708 31.1719C7.18458 31.1717 4.32829 28.3154 4.32812 24.792L3.78125 24.792L3.23437 24.792C3.23456 28.9195 6.58051 32.2654 10.708 32.2656L10.708 31.7187ZM3.78125 24.792L4.32812 24.792L4.32812 18.958L3.78125 18.958L3.23437 18.958L3.23437 24.792L3.78125 24.792ZM12.8516 9.52344L13.2383 9.13674C13.0247 8.92317 13.0247 8.57683 13.2383 8.36326L12.8516 7.97656L12.4649 7.58986C11.8242 8.23057 11.8242 9.26943 12.4649 9.91014L12.8516 9.52344ZM12.8516 7.97656L13.2383 8.36326L17.6133 3.98826L17.2266 3.60156L16.8399 3.21486L12.4649 7.58986L12.8516 7.97656ZM17.2266 3.60156L17.6133 3.98826C17.8268 3.7747 18.1732 3.7747 18.3867 3.98826L18.7734 3.60156L19.1601 3.21486C18.5194 2.57416 17.4806 2.57416 16.8399 3.21486L17.2266 3.60156ZM18.7734 3.60156L18.3867 3.98826L22.7617 8.36326L23.1484 7.97656L23.5351 7.58986L19.1601 3.21486L18.7734 3.60156ZM23.1484 7.97656L22.7617 8.36326C22.9753 8.57683 22.9753 8.92317 22.7617 9.13674L23.1484 9.52344L23.5351 9.91013C24.1758 9.26943 24.1758 8.23057 23.5351 7.58986L23.1484 7.97656ZM23.1484 9.52344L22.7617 9.13674C22.5482 9.35031 22.2018 9.35031 21.9883 9.13674L21.6016 9.52344L21.2149 9.91014C21.8556 10.5508 22.8944 10.5508 23.5351 9.91014L23.1484 9.52344ZM21.6016 9.52344L21.9883 9.13674L19.4804 6.62892L19.0937 7.01562L18.7071 7.40232L21.2149 9.91014L21.6016 9.52344ZM19.0937 7.01562L18.5469 7.01562L18.5469 21.875L19.0937 21.875L19.6406 21.875L19.6406 7.01562L19.0937 7.01562ZM19.0937 21.875L18.5469 21.875C18.5469 22.177 18.302 22.4219 18 22.4219L18 22.9687L18 23.5156C18.9061 23.5156 19.6406 22.7811 19.6406 21.875L19.0937 21.875ZM18 22.9687L18 22.4219C17.698 22.4219 17.4531 22.177 17.4531 21.875L16.9062 21.875L16.3594 21.875C16.3594 22.7811 17.0939 23.5156 18 23.5156L18 22.9687ZM16.9062 21.875L17.4531 21.875L17.4531 7.01562L16.9062 7.01562L16.3594 7.01562L16.3594 21.875L16.9062 21.875ZM16.9062 7.01562L16.5196 6.62892L14.0117 9.13674L14.3984 9.52344L14.7851 9.91014L17.2929 7.40232L16.9062 7.01562ZM14.3984 9.52344L14.0117 9.13674C13.7982 9.35031 13.4518 9.35031 13.2383 9.13674L12.8516 9.52344L12.4649 9.91014C13.1056 10.5508 14.1444 10.5508 14.7851 9.91014L14.3984 9.52344Z" fill="#D9303C"/>
</svg>
