<svg width="32" height="20" viewBox="0 0 32 20" fill="none" xmlns="http://www.w3.org/2000/svg">
<path d="M31.4482 20H0.551749C0.247062 20 0 19.7643 0 19.4737V0.526339C0 0.235684 0.247062 0 0.551749 0H31.4483C31.7529 0 32 0.235684 32 0.526339V19.4737C31.9999 19.7644 31.7529 20 31.4482 20Z" fill="white"/>
<path d="M31.9999 1.53853H0V0.526339C0 0.235684 0.247062 0 0.551749 0H31.4483C31.7529 0 32 0.235684 32 0.526339L31.9999 1.53853Z" fill="#FF4B55"/>
<path d="M31.9999 6.15381H0V7.69228H31.9999V6.15381Z" fill="#FF4B55"/>
<path d="M31.9999 3.07666H0V4.61514H31.9999V3.07666Z" fill="#FF4B55"/>
<path d="M31.9999 10.7695H0.551749C0.247062 10.7695 0 10.5338 0 10.2432V9.23096H31.9999V10.7695Z" fill="#FF4B55"/>
<path d="M31.9999 15.3853H0V16.9237H31.9999V15.3853Z" fill="#FF4B55"/>
<path d="M31.4482 19.9999H0.551749C0.247062 19.9999 0 19.7642 0 19.4736V18.4614H31.9999V19.4736C31.9999 19.7643 31.7529 19.9999 31.4482 19.9999Z" fill="#FF4B55"/>
<path d="M31.9999 12.3081H0V13.8466H31.9999V12.3081Z" fill="#FF4B55"/>
<path d="M14.3448 0H0.551749C0.247062 0 0 0.235624 0 0.526279V10.2428C0 10.5335 0.247062 10.7691 0.551749 10.7691H14.3448C14.6495 10.7691 14.8966 10.5335 14.8966 10.2428V0.526279C14.8965 0.235624 14.6495 0 14.3448 0Z" fill="#41479B"/>
<path d="M1.54915 1.20825L1.67127 1.55763L2.05733 1.56043C2.10733 1.56085 2.12802 1.62166 2.08783 1.64998L1.77727 1.8688L1.89377 2.21991C1.9089 2.26534 1.85458 2.30302 1.8139 2.27524L1.49983 2.06114L1.18577 2.2753C1.14508 2.30302 1.0909 2.2654 1.1059 2.21997L1.2224 1.86886L0.911835 1.65004C0.871647 1.62166 0.892335 1.56091 0.942335 1.56049L1.3284 1.55769L1.45052 1.20831C1.46627 1.163 1.53327 1.163 1.54915 1.20825Z" fill="#F5F5F5"/>
<path d="M1.54915 3.03584L1.67127 3.38522L2.05733 3.38803C2.10733 3.38844 2.12802 3.44926 2.08783 3.47758L1.77727 3.69639L1.89377 4.0475C1.9089 4.09293 1.85458 4.13061 1.8139 4.10283L1.49983 3.88873L1.18577 4.10289C1.14508 4.13061 1.0909 4.09299 1.1059 4.04756L1.2224 3.69645L0.911835 3.47764C0.871647 3.44926 0.892335 3.3885 0.942335 3.38809L1.3284 3.38528L1.45052 3.0359C1.46627 2.99065 1.53327 2.99065 1.54915 3.03584Z" fill="#F5F5F5"/>
<path d="M1.54915 4.86348L1.67127 5.21286L2.05733 5.21566C2.10733 5.21608 2.12802 5.27689 2.08783 5.30521L1.77727 5.52403L1.89377 5.87514C1.9089 5.92057 1.85458 5.95825 1.8139 5.93047L1.49983 5.71636L1.18577 5.93052C1.14508 5.95825 1.0909 5.92063 1.1059 5.8752L1.2224 5.52408L0.911835 5.30527C0.871647 5.27689 0.892335 5.21614 0.942335 5.21572L1.3284 5.21292L1.45052 4.86354C1.46627 4.81828 1.53327 4.81828 1.54915 4.86348Z" fill="#F5F5F5"/>
<path d="M1.54915 6.69116L1.67127 7.04054L2.05733 7.04334C2.10733 7.04376 2.12802 7.10457 2.08783 7.13289L1.77727 7.35171L1.89377 7.70282C1.9089 7.74825 1.85458 7.78593 1.8139 7.75815L1.49983 7.54404L1.18577 7.75821C1.14508 7.78593 1.0909 7.74831 1.1059 7.70288L1.2224 7.35177L0.911835 7.13295C0.871647 7.10457 0.892335 7.04382 0.942335 7.0434L1.3284 7.0406L1.45052 6.69122C1.46627 6.64591 1.53327 6.64591 1.54915 6.69116Z" fill="#F5F5F5"/>
<path d="M1.54915 8.51884L1.67127 8.86822L2.05733 8.87102C2.10733 8.87144 2.12802 8.93226 2.08783 8.96058L1.77727 9.17939L1.89377 9.5305C1.9089 9.57593 1.85458 9.61361 1.8139 9.58583L1.49983 9.37173L1.18577 9.58589C1.14508 9.61361 1.0909 9.57599 1.1059 9.53056L1.2224 9.17945L0.911835 8.96064C0.871647 8.93226 0.892335 8.8715 0.942335 8.87108L1.3284 8.86828L1.45052 8.5189C1.46627 8.47353 1.53327 8.47353 1.54915 8.51884Z" fill="#F5F5F5"/>
<path d="M3.03645 2.10421L3.15858 2.45359L3.54464 2.45639C3.59464 2.45681 3.61532 2.51762 3.57514 2.54594L3.26458 2.76475L3.38108 3.11587C3.3962 3.1613 3.34189 3.19898 3.3012 3.1712L2.98714 2.95703L2.67308 3.1712C2.63239 3.19892 2.5782 3.1613 2.5932 3.11587L2.7097 2.76475L2.39914 2.54594C2.35895 2.51756 2.37964 2.45681 2.42964 2.45639L2.8157 2.45359L2.93783 2.10421C2.95351 2.05901 3.02064 2.05901 3.03645 2.10421Z" fill="#F5F5F5"/>
<path d="M3.03645 3.93189L3.15858 4.28127L3.54464 4.28407C3.59464 4.28449 3.61532 4.3453 3.57514 4.37362L3.26458 4.59244L3.38108 4.94355C3.3962 4.98898 3.34189 5.02666 3.3012 4.99888L2.98714 4.78472L2.67308 4.99888C2.63239 5.0266 2.5782 4.98904 2.5932 4.94355L2.7097 4.59244L2.39914 4.37362C2.35895 4.34525 2.37964 4.28449 2.42964 4.28407L2.8157 4.28127L2.93783 3.93189C2.95351 3.88664 3.02064 3.88664 3.03645 3.93189Z" fill="#F5F5F5"/>
<path d="M3.03645 5.75953L3.15858 6.10891L3.54464 6.11171C3.59464 6.11213 3.61532 6.17294 3.57514 6.20126L3.26458 6.42007L3.38108 6.77118C3.3962 6.81662 3.34189 6.8543 3.3012 6.82651L2.98714 6.61235L2.67308 6.82651C2.63239 6.85424 2.5782 6.81662 2.5932 6.77118L2.7097 6.42007L2.39914 6.20126C2.35895 6.17288 2.37964 6.11213 2.42964 6.11171L2.8157 6.10891L2.93783 5.75953C2.95351 5.71427 3.02064 5.71427 3.03645 5.75953Z" fill="#F5F5F5"/>
<path d="M3.03645 7.58712L3.15858 7.9365L3.54464 7.9393C3.59464 7.93972 3.61532 8.00053 3.57514 8.02885L3.26458 8.24766L3.38108 8.59878C3.3962 8.64421 3.34189 8.68189 3.3012 8.65411L2.98714 8.43994L2.67308 8.65411C2.63239 8.68183 2.5782 8.64421 2.5932 8.59878L2.7097 8.24766L2.39914 8.02885C2.35895 8.00047 2.37964 7.93972 2.42964 7.9393L2.8157 7.9365L2.93783 7.58712C2.95351 7.54192 3.02064 7.54192 3.03645 7.58712Z" fill="#F5F5F5"/>
<path d="M4.52376 1.20826L4.64588 1.55764L5.03194 1.56044C5.08194 1.56086 5.10263 1.62167 5.06244 1.64999L4.75188 1.8688L4.86838 2.21991C4.8835 2.26535 4.82919 2.30303 4.7885 2.27524L4.47444 2.06108L4.16038 2.27524C4.11969 2.30297 4.06551 2.26535 4.08051 2.21991L4.19701 1.8688L3.88644 1.64999C3.84626 1.62161 3.86694 1.56086 3.91694 1.56044L4.30301 1.55764L4.42513 1.20826C4.44088 1.163 4.50794 1.163 4.52376 1.20826Z" fill="#F5F5F5"/>
<path d="M4.52376 3.03585L4.64588 3.38523L5.03194 3.38803C5.08194 3.38845 5.10263 3.44926 5.06244 3.47758L4.75188 3.6964L4.86838 4.04751C4.8835 4.09294 4.82919 4.13062 4.7885 4.10284L4.47444 3.88868L4.16038 4.10284C4.11969 4.13056 4.06551 4.09294 4.08051 4.04751L4.19701 3.6964L3.88644 3.47758C3.84626 3.4492 3.86694 3.38845 3.91694 3.38803L4.30301 3.38523L4.42513 3.03585C4.44088 2.99065 4.50794 2.99065 4.52376 3.03585Z" fill="#F5F5F5"/>
<path d="M4.52376 4.86348L4.64588 5.21287L5.03194 5.21567C5.08194 5.21609 5.10263 5.2769 5.06244 5.30522L4.75188 5.52403L4.86838 5.87514C4.8835 5.92058 4.82919 5.95826 4.7885 5.93047L4.47444 5.71631L4.16038 5.93047C4.11969 5.9582 4.06551 5.92058 4.08051 5.87514L4.19701 5.52403L3.88644 5.30522C3.84626 5.27684 3.86694 5.21609 3.91694 5.21567L4.30301 5.21287L4.42513 4.86348C4.44088 4.81829 4.50794 4.81829 4.52376 4.86348Z" fill="#F5F5F5"/>
<path d="M4.52376 6.69117L4.64588 7.04055L5.03194 7.04335C5.08194 7.04377 5.10263 7.10458 5.06244 7.1329L4.75188 7.35171L4.86838 7.70282C4.8835 7.74826 4.82919 7.78594 4.7885 7.75815L4.47444 7.54399L4.16038 7.75815C4.11969 7.78588 4.06551 7.74826 4.08051 7.70282L4.19701 7.35171L3.88644 7.1329C3.84626 7.10452 3.86694 7.04377 3.91694 7.04335L4.30301 7.04055L4.42513 6.69117C4.44088 6.64591 4.50794 6.64591 4.52376 6.69117Z" fill="#F5F5F5"/>
<path d="M4.52376 8.51885L4.64588 8.86823L5.03194 8.87103C5.08194 8.87145 5.10263 8.93226 5.06244 8.96058L4.75188 9.17939L4.86838 9.53051C4.8835 9.57594 4.82919 9.61362 4.7885 9.58584L4.47444 9.37167L4.16038 9.58584C4.11969 9.61356 4.06551 9.57594 4.08051 9.53051L4.19701 9.17939L3.88644 8.96058C3.84626 8.9322 3.86694 8.87145 3.91694 8.87103L4.30301 8.86823L4.42513 8.51885C4.44088 8.47354 4.50794 8.47354 4.52376 8.51885Z" fill="#F5F5F5"/>
<path d="M6.01008 2.10421L6.13221 2.45359L6.51827 2.45639C6.56827 2.45681 6.58896 2.51762 6.54877 2.54594L6.23821 2.76475L6.35471 3.11587C6.36983 3.1613 6.31552 3.19898 6.27483 3.1712L5.96077 2.95703L5.64671 3.1712C5.60602 3.19892 5.55183 3.1613 5.56683 3.11587L5.68333 2.76475L5.37277 2.54594C5.33258 2.51756 5.35327 2.45681 5.40327 2.45639L5.78933 2.45359L5.91146 2.10421C5.92715 2.05901 5.99427 2.05901 6.01008 2.10421Z" fill="#F5F5F5"/>
<path d="M6.01008 3.93189L6.13221 4.28127L6.51827 4.28407C6.56827 4.28449 6.58896 4.3453 6.54877 4.37362L6.23821 4.59244L6.35471 4.94355C6.36983 4.98898 6.31552 5.02666 6.27483 4.99888L5.96077 4.78472L5.64671 4.99888C5.60602 5.0266 5.55183 4.98904 5.56683 4.94355L5.68333 4.59244L5.37277 4.37362C5.33258 4.34525 5.35327 4.28449 5.40327 4.28407L5.78933 4.28127L5.91146 3.93189C5.92715 3.88664 5.99427 3.88664 6.01008 3.93189Z" fill="#F5F5F5"/>
<path d="M6.01008 5.75953L6.13221 6.10891L6.51827 6.11171C6.56827 6.11213 6.58896 6.17294 6.54877 6.20126L6.23821 6.42007L6.35471 6.77118C6.36983 6.81662 6.31552 6.8543 6.27483 6.82651L5.96077 6.61235L5.64671 6.82651C5.60602 6.85424 5.55183 6.81662 5.56683 6.77118L5.68333 6.42007L5.37277 6.20126C5.33258 6.17288 5.35327 6.11213 5.40327 6.11171L5.78933 6.10891L5.91146 5.75953C5.92715 5.71427 5.99427 5.71427 6.01008 5.75953Z" fill="#F5F5F5"/>
<path d="M6.01008 7.58712L6.13221 7.9365L6.51827 7.9393C6.56827 7.93972 6.58896 8.00053 6.54877 8.02885L6.23821 8.24766L6.35471 8.59878C6.36983 8.64421 6.31552 8.68189 6.27483 8.65411L5.96077 8.43994L5.64671 8.65411C5.60602 8.68183 5.55183 8.64421 5.56683 8.59878L5.68333 8.24766L5.37277 8.02885C5.33258 8.00047 5.35327 7.93972 5.40327 7.9393L5.78933 7.9365L5.91146 7.58712C5.92715 7.54192 5.99427 7.54192 6.01008 7.58712Z" fill="#F5F5F5"/>
<path d="M7.49745 1.20826L7.61958 1.55764L8.00564 1.56044C8.05564 1.56086 8.07632 1.62167 8.03614 1.64999L7.72558 1.8688L7.84207 2.21991C7.8572 2.26535 7.80289 2.30303 7.7622 2.27524L7.44808 2.06108L7.13401 2.27524C7.09333 2.30297 7.03914 2.26535 7.05414 2.21991L7.17064 1.8688L6.86008 1.64999C6.81989 1.62161 6.84058 1.56086 6.89058 1.56044L7.27664 1.55764L7.39876 1.20826C7.41458 1.163 7.48164 1.163 7.49745 1.20826Z" fill="#F5F5F5"/>
<path d="M7.49745 3.03585L7.61958 3.38523L8.00564 3.38803C8.05564 3.38845 8.07632 3.44926 8.03614 3.47758L7.72558 3.6964L7.84207 4.04751C7.8572 4.09294 7.80289 4.13062 7.7622 4.10284L7.44808 3.88868L7.13401 4.10284C7.09333 4.13056 7.03914 4.09294 7.05414 4.04751L7.17064 3.6964L6.86008 3.47758C6.81989 3.4492 6.84058 3.38845 6.89058 3.38803L7.27664 3.38523L7.39876 3.03585C7.41458 2.99065 7.48164 2.99065 7.49745 3.03585Z" fill="#F5F5F5"/>
<path d="M7.49745 4.86348L7.61958 5.21287L8.00564 5.21567C8.05564 5.21609 8.07632 5.2769 8.03614 5.30522L7.72558 5.52403L7.84207 5.87514C7.8572 5.92058 7.80289 5.95826 7.7622 5.93047L7.44808 5.71631L7.13401 5.93047C7.09333 5.9582 7.03914 5.92058 7.05414 5.87514L7.17064 5.52403L6.86008 5.30522C6.81989 5.27684 6.84058 5.21609 6.89058 5.21567L7.27664 5.21287L7.39876 4.86348C7.41458 4.81829 7.48164 4.81829 7.49745 4.86348Z" fill="#F5F5F5"/>
<path d="M7.49745 6.69117L7.61958 7.04055L8.00564 7.04335C8.05564 7.04377 8.07632 7.10458 8.03614 7.1329L7.72558 7.35171L7.84207 7.70282C7.8572 7.74826 7.80289 7.78594 7.7622 7.75815L7.44808 7.54399L7.13401 7.75815C7.09333 7.78588 7.03914 7.74826 7.05414 7.70282L7.17064 7.35171L6.86008 7.1329C6.81989 7.10452 6.84058 7.04377 6.89058 7.04335L7.27664 7.04055L7.39876 6.69117C7.41458 6.64591 7.48164 6.64591 7.49745 6.69117Z" fill="#F5F5F5"/>
<path d="M7.49745 8.51885L7.61958 8.86823L8.00564 8.87103C8.05564 8.87145 8.07632 8.93226 8.03614 8.96058L7.72558 9.17939L7.84207 9.53051C7.8572 9.57594 7.80289 9.61362 7.7622 9.58584L7.44808 9.37167L7.13401 9.58584C7.09333 9.61356 7.03914 9.57594 7.05414 9.53051L7.17064 9.17939L6.86008 8.96058C6.81989 8.9322 6.84058 8.87145 6.89058 8.87103L7.27664 8.86823L7.39876 8.51885C7.41458 8.47354 7.48164 8.47354 7.49745 8.51885Z" fill="#F5F5F5"/>
<path d="M8.98469 2.10421L9.10682 2.45359L9.49288 2.45639C9.54288 2.45681 9.56357 2.51762 9.52338 2.54594L9.21282 2.76475L9.32932 3.11587C9.34444 3.1613 9.29013 3.19898 9.24944 3.1712L8.93538 2.95703L8.62132 3.1712C8.58063 3.19892 8.52644 3.1613 8.54144 3.11587L8.65794 2.76475L8.34738 2.54594C8.30719 2.51756 8.32788 2.45681 8.37788 2.45639L8.76394 2.45359L8.88607 2.10421C8.90188 2.05901 8.96888 2.05901 8.98469 2.10421Z" fill="#F5F5F5"/>
<path d="M8.98469 3.93189L9.10682 4.28127L9.49288 4.28407C9.54288 4.28449 9.56357 4.3453 9.52338 4.37362L9.21282 4.59244L9.32932 4.94355C9.34444 4.98898 9.29013 5.02666 9.24944 4.99888L8.93538 4.78472L8.62132 4.99888C8.58063 5.0266 8.52644 4.98904 8.54144 4.94355L8.65794 4.59244L8.34738 4.37362C8.30719 4.34525 8.32788 4.28449 8.37788 4.28407L8.76394 4.28127L8.88607 3.93189C8.90188 3.88664 8.96888 3.88664 8.98469 3.93189Z" fill="#F5F5F5"/>
<path d="M8.98469 5.75953L9.10682 6.10891L9.49288 6.11171C9.54288 6.11213 9.56357 6.17294 9.52338 6.20126L9.21282 6.42007L9.32932 6.77118C9.34444 6.81662 9.29013 6.8543 9.24944 6.82651L8.93538 6.61235L8.62132 6.82651C8.58063 6.85424 8.52644 6.81662 8.54144 6.77118L8.65794 6.42007L8.34738 6.20126C8.30719 6.17288 8.32788 6.11213 8.37788 6.11171L8.76394 6.10891L8.88607 5.75953C8.90188 5.71427 8.96888 5.71427 8.98469 5.75953Z" fill="#F5F5F5"/>
<path d="M8.98469 7.58712L9.10682 7.9365L9.49288 7.9393C9.54288 7.93972 9.56357 8.00053 9.52338 8.02885L9.21282 8.24766L9.32932 8.59878C9.34444 8.64421 9.29013 8.68189 9.24944 8.65411L8.93538 8.43994L8.62132 8.65411C8.58063 8.68183 8.52644 8.64421 8.54144 8.59878L8.65794 8.24766L8.34738 8.02885C8.30719 8.00047 8.32788 7.93972 8.37788 7.9393L8.76394 7.9365L8.88607 7.58712C8.90188 7.54192 8.96888 7.54192 8.98469 7.58712Z" fill="#F5F5F5"/>
<path d="M10.472 1.20826L10.5941 1.55764L10.9802 1.56044C11.0302 1.56086 11.0509 1.62167 11.0107 1.64999L10.7001 1.8688L10.8166 2.21991C10.8317 2.26535 10.7774 2.30303 10.7367 2.27524L10.4227 2.06108L10.1086 2.27524C10.0679 2.30297 10.0137 2.26535 10.0287 2.21991L10.1452 1.8688L9.83469 1.64999C9.7945 1.62161 9.81519 1.56086 9.86519 1.56044L10.2512 1.55764L10.3734 1.20826C10.3891 1.163 10.4562 1.163 10.472 1.20826Z" fill="#F5F5F5"/>
<path d="M10.472 3.03585L10.5941 3.38523L10.9802 3.38803C11.0302 3.38845 11.0509 3.44926 11.0107 3.47758L10.7001 3.6964L10.8166 4.04751C10.8317 4.09294 10.7774 4.13062 10.7367 4.10284L10.4227 3.88868L10.1086 4.10284C10.0679 4.13056 10.0137 4.09294 10.0287 4.04751L10.1452 3.6964L9.83469 3.47758C9.7945 3.4492 9.81519 3.38845 9.86519 3.38803L10.2512 3.38523L10.3734 3.03585C10.3891 2.99065 10.4562 2.99065 10.472 3.03585Z" fill="#F5F5F5"/>
<path d="M10.472 4.86348L10.5941 5.21287L10.9802 5.21567C11.0302 5.21609 11.0509 5.2769 11.0107 5.30522L10.7001 5.52403L10.8166 5.87514C10.8317 5.92058 10.7774 5.95826 10.7367 5.93047L10.4227 5.71631L10.1086 5.93047C10.0679 5.9582 10.0137 5.92058 10.0287 5.87514L10.1452 5.52403L9.83469 5.30522C9.7945 5.27684 9.81519 5.21609 9.86519 5.21567L10.2512 5.21287L10.3734 4.86348C10.3891 4.81829 10.4562 4.81829 10.472 4.86348Z" fill="#F5F5F5"/>
<path d="M10.472 6.69117L10.5941 7.04055L10.9802 7.04335C11.0302 7.04377 11.0509 7.10458 11.0107 7.1329L10.7001 7.35171L10.8166 7.70282C10.8317 7.74826 10.7774 7.78594 10.7367 7.75815L10.4227 7.54399L10.1086 7.75815C10.0679 7.78588 10.0137 7.74826 10.0287 7.70282L10.1452 7.35171L9.83469 7.1329C9.7945 7.10452 9.81519 7.04377 9.86519 7.04335L10.2512 7.04055L10.3734 6.69117C10.3891 6.64591 10.4562 6.64591 10.472 6.69117Z" fill="#F5F5F5"/>
<path d="M10.472 8.51885L10.5941 8.86823L10.9802 8.87103C11.0302 8.87145 11.0509 8.93226 11.0107 8.96058L10.7001 9.17939L10.8166 9.53051C10.8317 9.57594 10.7774 9.61362 10.7367 9.58584L10.4227 9.37167L10.1086 9.58584C10.0679 9.61356 10.0137 9.57594 10.0287 9.53051L10.1452 9.17939L9.83469 8.96058C9.7945 8.9322 9.81519 8.87145 9.86519 8.87103L10.2512 8.86823L10.3734 8.51885C10.3891 8.47354 10.4562 8.47354 10.472 8.51885Z" fill="#F5F5F5"/>
<path d="M11.9593 2.10421L12.0814 2.45359L12.4675 2.45639C12.5175 2.45681 12.5382 2.51762 12.498 2.54594L12.1874 2.76475L12.3039 3.11587C12.3191 3.1613 12.2647 3.19898 12.2241 3.1712L11.91 2.95703L11.5959 3.1712C11.5552 3.19892 11.5011 3.1613 11.5161 3.11587L11.6326 2.76475L11.322 2.54594C11.2818 2.51756 11.3025 2.45681 11.3525 2.45639L11.7386 2.45359L11.8607 2.10421C11.8764 2.05901 11.9436 2.05901 11.9593 2.10421Z" fill="#F5F5F5"/>
<path d="M11.9593 3.93189L12.0814 4.28127L12.4675 4.28407C12.5175 4.28449 12.5382 4.3453 12.498 4.37362L12.1874 4.59244L12.3039 4.94355C12.3191 4.98898 12.2647 5.02666 12.2241 4.99888L11.91 4.78472L11.5959 4.99888C11.5552 5.0266 11.5011 4.98904 11.5161 4.94355L11.6326 4.59244L11.322 4.37362C11.2818 4.34525 11.3025 4.28449 11.3525 4.28407L11.7386 4.28127L11.8607 3.93189C11.8764 3.88664 11.9436 3.88664 11.9593 3.93189Z" fill="#F5F5F5"/>
<path d="M11.9593 5.75953L12.0814 6.10891L12.4675 6.11171C12.5175 6.11213 12.5382 6.17294 12.498 6.20126L12.1874 6.42007L12.3039 6.77118C12.3191 6.81662 12.2647 6.8543 12.2241 6.82651L11.91 6.61235L11.5959 6.82651C11.5552 6.85424 11.5011 6.81662 11.5161 6.77118L11.6326 6.42007L11.322 6.20126C11.2818 6.17288 11.3025 6.11213 11.3525 6.11171L11.7386 6.10891L11.8607 5.75953C11.8764 5.71427 11.9436 5.71427 11.9593 5.75953Z" fill="#F5F5F5"/>
<path d="M11.9593 7.58712L12.0814 7.9365L12.4675 7.9393C12.5175 7.93972 12.5382 8.00053 12.498 8.02885L12.1874 8.24766L12.3039 8.59878C12.3191 8.64421 12.2647 8.68189 12.2241 8.65411L11.91 8.43994L11.5959 8.65411C11.5552 8.68183 11.5011 8.64421 11.5161 8.59878L11.6326 8.24766L11.322 8.02885C11.2818 8.00047 11.3025 7.93972 11.3525 7.9393L11.7386 7.9365L11.8607 7.58712C11.8764 7.54192 11.9436 7.54192 11.9593 7.58712Z" fill="#F5F5F5"/>
<path d="M13.4456 1.20826L13.5678 1.55764L13.9538 1.56044C14.0038 1.56086 14.0245 1.62167 13.9843 1.64999L13.6738 1.8688L13.7903 2.21991C13.8054 2.26535 13.7511 2.30303 13.7104 2.27524L13.3963 2.06108L13.0823 2.27524C13.0416 2.30297 12.9874 2.26535 13.0024 2.21991L13.1189 1.8688L12.8083 1.64999C12.7681 1.62161 12.7888 1.56086 12.8388 1.56044L13.2249 1.55764L13.347 1.20826C13.3628 1.163 13.4298 1.163 13.4456 1.20826Z" fill="#F5F5F5"/>
<path d="M13.4456 3.03585L13.5678 3.38523L13.9538 3.38803C14.0038 3.38845 14.0245 3.44926 13.9843 3.47758L13.6738 3.6964L13.7903 4.04751C13.8054 4.09294 13.7511 4.13062 13.7104 4.10284L13.3963 3.88868L13.0823 4.10284C13.0416 4.13056 12.9874 4.09294 13.0024 4.04751L13.1189 3.6964L12.8083 3.47758C12.7681 3.4492 12.7888 3.38845 12.8388 3.38803L13.2249 3.38523L13.347 3.03585C13.3628 2.99065 13.4298 2.99065 13.4456 3.03585Z" fill="#F5F5F5"/>
<path d="M13.4456 4.86348L13.5678 5.21287L13.9538 5.21567C14.0038 5.21609 14.0245 5.2769 13.9843 5.30522L13.6738 5.52403L13.7903 5.87514C13.8054 5.92058 13.7511 5.95826 13.7104 5.93047L13.3963 5.71631L13.0823 5.93047C13.0416 5.9582 12.9874 5.92058 13.0024 5.87514L13.1189 5.52403L12.8083 5.30522C12.7681 5.27684 12.7888 5.21609 12.8388 5.21567L13.2249 5.21287L13.347 4.86348C13.3628 4.81829 13.4298 4.81829 13.4456 4.86348Z" fill="#F5F5F5"/>
<path d="M13.4456 6.69117L13.5678 7.04055L13.9538 7.04335C14.0038 7.04377 14.0245 7.10458 13.9843 7.1329L13.6738 7.35171L13.7903 7.70282C13.8054 7.74826 13.7511 7.78594 13.7104 7.75815L13.3963 7.54399L13.0823 7.75815C13.0416 7.78588 12.9874 7.74826 13.0024 7.70282L13.1189 7.35171L12.8083 7.1329C12.7681 7.10452 12.7888 7.04377 12.8388 7.04335L13.2249 7.04055L13.347 6.69117C13.3628 6.64591 13.4298 6.64591 13.4456 6.69117Z" fill="#F5F5F5"/>
<path d="M13.4456 8.51885L13.5678 8.86823L13.9538 8.87103C14.0038 8.87145 14.0245 8.93226 13.9843 8.96058L13.6738 9.17939L13.7903 9.53051C13.8054 9.57594 13.7511 9.61362 13.7104 9.58584L13.3963 9.37167L13.0823 9.58584C13.0416 9.61356 12.9874 9.57594 13.0024 9.53051L13.1189 9.17939L12.8083 8.96058C12.7681 8.9322 12.7888 8.87145 12.8388 8.87103L13.2249 8.86823L13.347 8.51885C13.3628 8.47354 13.4298 8.47354 13.4456 8.51885Z" fill="#F5F5F5"/>
</svg>
