<svg width="154" height="13" viewBox="0 0 154 13" fill="none" xmlns="http://www.w3.org/2000/svg">
<path d="M19.2309 0.216766L16.6922 12.0858H13.6214L16.1604 0.216766H19.2309ZM32.1493 7.88073L33.7654 3.42368L34.6955 7.88073H32.1493ZM35.5765 12.0858H38.4158L35.9352 0.216766H33.3162C32.7259 0.216766 32.2283 0.559 32.0081 1.08677L27.4007 12.0858H30.6255L31.2657 10.3132H35.2046L35.5765 12.0858ZM27.5607 8.21095C27.574 5.07852 23.2304 4.905 23.2595 3.50536C23.2688 3.08011 23.6746 2.62709 24.5614 2.51123C25.0011 2.45464 26.2144 2.40872 27.5897 3.04247L28.1277 0.524563C27.389 0.257343 26.4384 0 25.2555 0C22.22 0 20.0846 1.6124 20.0675 3.92315C20.0481 5.63191 21.5929 6.58467 22.7544 7.15382C23.952 7.73551 24.3532 8.10844 24.3473 8.6282C24.3391 9.42452 23.3924 9.77717 22.511 9.79051C20.9664 9.81454 20.071 9.373 19.3574 9.04037L18.8 11.6424C19.5187 11.9713 20.8428 12.2574 22.2138 12.2721C25.441 12.2721 27.551 10.6787 27.5607 8.21095ZM14.8433 0.216766L9.86805 12.0858H6.6227L4.17421 2.61347C4.02578 2.03098 3.89631 1.81688 3.44489 1.57075C2.7065 1.16979 1.48759 0.79472 0.415771 0.561403L0.488384 0.216766H5.71319C6.37871 0.216766 6.97748 0.659641 7.12991 1.42633L8.4233 8.29504L11.6174 0.216766H14.8433Z" fill="#22D800"/>
<path d="M66.5195 1.36279H60.9414V11.3868H66.5195V1.36279Z" fill="#FF5F00"/>
<path d="M61.2955 6.375C61.2946 5.40961 61.5133 4.45668 61.9352 3.58834C62.357 2.71999 62.9709 1.959 63.7303 1.36298C62.7899 0.623767 61.6605 0.164063 60.4711 0.0364089C59.2817 -0.0912457 58.0805 0.1183 57.0046 0.641096C55.9287 1.16389 55.0216 1.97884 54.3869 2.9928C53.7523 4.00676 53.4158 5.17881 53.4158 6.375C53.4158 7.57118 53.7523 8.74324 54.3869 9.7572C55.0216 10.7712 55.9287 11.5861 57.0046 12.1089C58.0805 12.6317 59.2817 12.8412 60.4711 12.7136C61.6605 12.5859 62.7899 12.1262 63.7303 11.387C62.9709 10.791 62.357 10.03 61.9352 9.16166C61.5134 8.29332 61.2946 7.34038 61.2955 6.375Z" fill="#EB001B"/>
<path d="M74.0447 6.375C74.0448 7.57116 73.7083 8.74322 73.0737 9.75718C72.4391 10.7711 71.532 11.5861 70.4561 12.1089C69.3803 12.6317 68.179 12.8412 66.9897 12.7136C65.8003 12.5859 64.6709 12.1262 63.7305 11.387C64.4892 10.7904 65.1026 10.0293 65.5244 9.16107C65.9462 8.29287 66.1653 7.34023 66.1653 6.375C66.1653 5.40976 65.9462 4.45713 65.5244 3.58892C65.1026 2.72072 64.4892 1.9596 63.7305 1.36298C64.6709 0.623764 65.8003 0.164061 66.9897 0.0364077C68.179 -0.0912452 69.3803 0.118305 70.4561 0.641105C71.532 1.16391 72.4391 1.97886 73.0737 2.99282C73.7083 4.00678 74.0448 5.17883 74.0447 6.375Z" fill="#F79E1B"/>
<path d="M73.4363 10.3251V10.1199H73.5191V10.078H73.3083V10.1199H73.3911V10.3251H73.4363ZM73.8455 10.3251V10.0776H73.7809L73.7066 10.2478L73.6323 10.0776H73.5676V10.3251H73.6133V10.1384L73.6829 10.2993H73.7302L73.7999 10.138V10.3251H73.8455Z" fill="#F79E1B"/>
<path d="M99.6534 0C100.089 0.71957 100.286 1.46073 100.286 2.39697C100.286 5.38308 97.736 9.26226 95.6667 11.9862H90.9402L89.0447 0.653798L93.1832 0.260962L94.1854 8.32467C95.1218 6.79938 96.2774 4.40244 96.2774 2.76822C96.2774 1.8737 96.1242 1.26442 95.8846 0.762747L99.6534 0Z" fill="#008CFF"/>
<path d="M105.014 4.99102C105.776 4.99102 107.693 4.64269 107.693 3.5532C107.693 3.03006 107.323 2.7691 106.887 2.7691C106.124 2.7691 105.123 3.68363 105.014 4.99102ZM104.927 7.14874C104.927 8.47904 105.667 9.00096 106.648 9.00096C107.716 9.00096 108.738 8.73999 110.068 8.0646L109.567 11.4637C108.63 11.9212 107.171 12.2264 105.754 12.2264C102.16 12.2264 100.874 10.0475 100.874 7.32343C100.874 3.79282 102.966 0.0439453 107.28 0.0439453C109.654 0.0439453 110.982 1.37414 110.982 3.22636C110.983 6.21238 107.149 7.12714 104.927 7.14874Z" fill="#008CFF"/>
<path d="M122.925 2.61598C122.925 3.05176 122.859 3.68386 122.793 4.09695L121.551 11.9428H117.522L118.654 4.75064C118.676 4.55557 118.742 4.16285 118.742 3.94495C118.742 3.42178 118.415 3.29126 118.022 3.29126C117.5 3.29126 116.977 3.53073 116.628 3.70558L115.343 11.9429H111.291L113.142 0.196307H116.65L116.694 1.13389C117.521 0.589146 118.611 3.5947e-08 120.157 3.5947e-08C122.205 -0.000223937 122.925 1.04619 122.925 2.61598Z" fill="#008CFF"/>
<path d="M134.896 1.32985C136.05 0.502556 137.14 0.0439453 138.642 0.0439453C140.712 0.0439453 141.431 1.09036 141.431 2.66015C141.431 3.09596 141.365 3.72806 141.3 4.14115L140.059 11.987H136.028L137.183 4.64282C137.204 4.44649 137.249 4.20702 137.249 4.05512C137.249 3.46607 136.922 3.33543 136.529 3.33543C136.028 3.33543 135.528 3.55333 135.156 3.74975L133.872 11.9871H129.842L130.996 4.64291C131.017 4.44661 131.061 4.20714 131.061 4.05524C131.061 3.46619 130.734 3.33555 130.342 3.33555C129.819 3.33555 129.297 3.57502 128.948 3.74987L127.662 11.9872H123.611L125.463 0.240587H128.927L129.036 1.22123C129.842 0.63354 130.931 0.0443923 132.39 0.0443923C133.654 0.043945 134.481 0.588798 134.896 1.32985Z" fill="#008CFF"/>
<path d="M149.444 4.75125C149.444 3.79231 149.204 3.13852 148.486 3.13852C146.896 3.13852 146.569 5.94957 146.569 7.3876C146.569 8.47853 146.874 9.1537 147.592 9.1537C149.096 9.1537 149.444 6.18916 149.444 4.75125ZM142.474 7.214C142.474 3.50964 144.434 0.043457 148.944 0.043457C152.342 0.043457 153.584 2.04893 153.584 4.81703C153.584 8.47841 151.645 12.2701 147.026 12.2701C143.606 12.2701 142.474 10.0252 142.474 7.214Z" fill="#008CFF"/>
</svg>
