<svg width="32" height="33" viewBox="0 0 32 33" fill="none" xmlns="http://www.w3.org/2000/svg">
<path d="M9.06607 19.3385C8.64167 19.3385 8.23465 19.1699 7.93455 18.8698C7.63445 18.5697 7.46586 18.1627 7.46586 17.7383H6.39905C6.39905 18.4456 6.68004 19.124 7.1802 19.6242C7.68036 20.1243 8.35873 20.4053 9.06607 20.4053C9.77341 20.4053 10.4518 20.1243 10.9519 19.6242C11.4521 19.124 11.7331 18.4456 11.7331 17.7383H10.6663C10.6663 18.1627 10.4977 18.5697 10.1976 18.8698C9.89749 19.1699 9.49047 19.3385 9.06607 19.3385Z" fill="#D9303C"/>
<path d="M29.3354 13.471C28.9235 13.4722 28.5176 13.5692 28.1497 13.7543C27.7818 13.9395 27.462 14.2077 27.2157 14.5378H26.6684V13.471C26.6674 12.5073 26.5625 11.5466 26.3553 10.6055C26.9913 10.5633 27.5906 10.2928 28.043 9.84383C28.5375 9.3531 28.8199 8.68803 28.8296 7.9914C28.8393 7.29477 28.5754 6.62211 28.0947 6.11785C27.614 5.61358 26.9547 5.31791 26.2584 5.2943C25.5621 5.27069 24.8843 5.52103 24.3705 5.99158C22.7695 3.63042 20.4536 1.8449 17.7628 0.897305C15.072 -0.0502891 12.1483 -0.110006 9.42106 0.726925C6.69384 1.56386 4.3069 3.25332 2.61086 5.54714C0.914818 7.84096 -0.000917431 10.6182 -0.00183105 13.471V30.0065C-0.00183105 30.148 0.0543667 30.2837 0.154399 30.3837C0.254432 30.4837 0.390106 30.5399 0.531573 30.5399H10.1329V32.1401H11.1997V30.5399H15.4669V32.1401H16.5337V30.5399H26.135C26.2765 30.5399 26.4121 30.4837 26.5122 30.3837C26.6122 30.2837 26.6684 30.148 26.6684 30.0065V17.7382H27.2157C27.4891 18.1001 27.8505 18.3861 28.2655 18.5691C28.6805 18.7521 29.1354 18.826 29.587 18.7839C30.0386 18.7418 30.4719 18.585 30.8459 18.3283C31.2199 18.0717 31.5221 17.7238 31.7239 17.3176C31.9257 16.9114 32.0204 16.4603 31.9989 16.0073C31.9774 15.5542 31.8406 15.1142 31.6013 14.7288C31.3621 14.3435 31.0283 14.0257 30.6318 13.8056C30.2352 13.5854 29.789 13.4703 29.3354 13.471ZM23.8846 14.5378L23.476 12.9029L25.3552 11.0232C25.5188 11.8288 25.6014 12.6489 25.6016 13.471V14.5378H23.8846ZM21.3343 12.0271L23.932 9.42884C24.1302 9.72872 24.3869 9.98545 24.6868 10.1836L22.3318 12.5386L21.3343 12.7882V12.0271ZM26.1574 6.3591C26.5276 6.35939 26.8863 6.48804 27.1723 6.72313C27.4583 6.95822 27.6539 7.2852 27.7258 7.64836C27.7978 8.01152 27.7416 8.38839 27.5668 8.71476C27.392 9.04112 27.1095 9.29679 26.7673 9.4382C26.4252 9.5796 26.0446 9.598 25.6904 9.49025C25.3362 9.3825 25.0303 9.15528 24.8249 8.84729C24.6195 8.5393 24.5272 8.16961 24.5637 7.8012C24.6003 7.4328 24.7635 7.08847 25.0255 6.82689C25.174 6.67818 25.3505 6.5603 25.5448 6.48001C25.739 6.39973 25.9472 6.35864 26.1574 6.3591ZM1.06498 13.471C1.06421 10.8119 1.92764 8.22458 3.52515 6.09887C5.12267 3.97315 7.36774 2.42418 9.92212 1.68533C12.4765 0.946482 15.2018 1.05778 17.6874 2.00245C20.173 2.94713 22.2843 4.67401 23.7032 6.92291C23.5191 7.36628 23.4581 7.85113 23.5266 8.32629L21.3343 10.5186V8.13693H20.2675V13.0549L16.5337 13.9884V7.07013C16.5329 6.22158 16.1954 5.40803 15.5954 4.80802C14.9954 4.208 14.1818 3.87055 13.3333 3.8697C10.6463 3.87266 8.07023 4.94137 6.17025 6.84135C4.27027 8.74133 3.20156 11.3174 3.1986 14.0044V19.4648C3.19189 21.5361 3.76044 23.5685 4.84087 25.3356C5.9213 27.1027 7.47119 28.5351 9.31781 29.4731H1.06498V13.471ZM12.2665 17.7382H14.1147L12.9562 18.8968C12.8562 18.9968 12.8 19.1324 12.8 19.2739C12.8 19.4153 12.8562 19.551 12.9562 19.651L14.0875 20.7824C14.1717 20.8665 14.2815 20.9201 14.3997 20.9346C14.5178 20.9491 14.6373 20.9236 14.7393 20.8624L15.4669 20.426V29.1077C15.3976 29.1312 15.3298 29.1573 15.2594 29.1792C14.0049 29.5691 12.6616 29.5691 11.4072 29.1792C9.33341 28.5382 7.52023 27.2484 6.23456 25.4996C4.94888 23.7508 4.25862 21.6354 4.2654 19.4648V14.0044C4.26809 11.6003 5.22431 9.29537 6.92429 7.59539C8.62426 5.89541 10.9292 4.93919 13.3333 4.93651C13.8992 4.93651 14.4418 5.1613 14.842 5.56143C15.2421 5.96156 15.4669 6.50425 15.4669 7.07013V14.2551L12.1369 15.0872C12.0215 15.1161 11.9191 15.1827 11.846 15.2764C11.7728 15.3702 11.7331 15.4857 11.7331 15.6046V17.2048C11.7331 17.3463 11.7893 17.482 11.8893 17.582C11.9893 17.682 12.125 17.7382 12.2665 17.7382ZM15.4669 19.1816L14.5473 19.7337L14.0875 19.2739L15.4669 17.8945V19.1816ZM16.5337 17.7382H20.2675V29.4731H16.5337V17.7382ZM25.6016 29.4731H21.3343V17.7382H25.6016V29.4731ZM12.7999 16.6714V16.0212L22.5462 13.5846L22.9506 15.2003C22.9794 15.3157 23.0459 15.4182 23.1397 15.4915C23.2334 15.5648 23.349 15.6046 23.468 15.6046H26.7217C26.6499 15.9566 26.6499 16.3194 26.7217 16.6714H12.7999ZM29.3354 17.7382C29.0189 17.7382 28.7095 17.6444 28.4464 17.4685C28.1832 17.2927 27.9781 17.0428 27.857 16.7504C27.7359 16.458 27.7042 16.1362 27.7659 15.8258C27.8277 15.5154 27.9801 15.2303 28.2039 15.0065C28.4277 14.7827 28.7128 14.6303 29.0232 14.5685C29.3336 14.5068 29.6554 14.5385 29.9478 14.6596C30.2402 14.7807 30.4901 14.9858 30.6659 15.249C30.8418 15.5121 30.9356 15.8215 30.9356 16.138C30.9356 16.5624 30.767 16.9694 30.4669 17.2695C30.1668 17.5696 29.7598 17.7382 29.3354 17.7382Z" fill="#D9303C"/>
</svg>
